M48
; DRILL file {KiCad (5.99.0-12889-g70df3822b5)} date Fri 12 Nov 2021 21:26:50 CET
; FORMAT={-:-/ absolute / inch / decimal}
; #@! TF.CreationDate,2021-11-12T21:26:50+01:00
; #@! TF.GenerationSoftware,Kicad,Pcbnew,(5.99.0-12889-g70df3822b5)
; #@! TF.FileFunction,Plated,1,2,PTH
FMAT,2
INCH
; #@! TA.AperFunction,Plated,PTH,ViaDrill
T1C0.0157
; #@! TA.AperFunction,Plated,PTH,ComponentDrill
T2C0.0315
; #@! TA.AperFunction,Plated,PTH,ComponentDrill
T3C0.0354
; #@! TA.AperFunction,Plated,PTH,ComponentDrill
T4C0.0394
; #@! TA.AperFunction,Plated,PTH,ComponentDrill
T5C0.0433
; #@! TA.AperFunction,Plated,PTH,ComponentDrill
T6C0.0512
; #@! TA.AperFunction,Plated,PTH,ComponentDrill
T7C0.0551
; #@! TA.AperFunction,Plated,PTH,ComponentDrill
T8C0.0591
; #@! TA.AperFunction,Plated,PTH,ComponentDrill
T9C0.0945
%
G90
G05
T1
X3.0584Y-4.0984
X3.08Y-3.06
X3.16Y-3.08
X3.16Y-3.48
X3.32Y-4.72
X3.92Y-2.46
X3.96Y-2.36
X3.9915Y-2.4121
X3.992Y-1.9121
X4.34Y-4.46
X4.38Y-3.88
X4.54Y-3.46
T2
X2.1535Y-3.5921
X2.252Y-3.5921
X2.4Y-3.28
X2.4Y-3.42
X2.4Y-3.5921
X2.8Y-3.28
X2.8Y-3.42
X2.8Y-3.5921
X3.0669Y-3.2846
X3.0669Y-3.5846
X3.1669Y-3.2846
X3.1669Y-3.5846
X3.2669Y-3.2846
X3.2669Y-3.5846
X3.3669Y-3.2846
X3.3669Y-3.5846
X3.4669Y-3.2846
X3.4669Y-3.5846
X3.5472Y-3.9409
X3.5472Y-4.0394
X3.5669Y-3.2846
X3.5669Y-3.5846
X3.6669Y-3.2846
X3.6669Y-3.5846
X3.6673Y-3.7047
X3.6708Y-3.16
X3.7657Y-3.7047
X3.7669Y-3.2846
X3.7669Y-3.5846
X3.7692Y-3.16
X3.8669Y-3.2846
X3.8669Y-3.5846
X3.9Y-3.16
X3.9669Y-3.2846
X3.9669Y-3.5846
X3.9984Y-3.16
X4.0669Y-3.2846
X4.0669Y-3.5846
X4.1669Y-3.2846
X4.1669Y-3.5846
X4.2246Y-3.9408
X4.2246Y-4.0392
X4.2669Y-3.2846
X4.2669Y-3.5846
X4.35Y-1.95
X4.35Y-2.0484
X4.35Y-2.3309
X4.35Y-2.4293
X4.3669Y-3.2846
X4.3669Y-3.5846
X4.54Y-3.24
X4.54Y-3.64
X4.7Y-3.24
X4.7Y-3.64
T3
X2.75Y-3.9498
X2.75Y-4.0498
X2.75Y-4.5577
X2.75Y-4.6577
X4.7Y-3.9498
X4.7Y-4.0498
X4.7Y-4.5577
X4.7Y-4.6577
T4
X1.932Y-3.0921
X1.932Y-3.1921
X1.932Y-3.2921
X1.932Y-3.3921
X1.932Y-3.4921
X1.932Y-3.5921
X1.9528Y-1.8858
X2.252Y-1.8858
X2.3218Y-2.3127
X2.3218Y-2.4127
X2.3218Y-2.5127
X2.4218Y-2.3127
X2.4218Y-2.4127
X2.4218Y-2.5127
X3.5665Y-2.9
X3.6665Y-2.9
X3.7665Y-2.9
X3.8665Y-2.9
X5.05Y-1.7994
X5.05Y-1.8994
X5.05Y-1.9994
T5
X2.2834Y-2.7242
X2.2834Y-2.9801
X2.4606Y-2.7242
X2.4606Y-2.9801
X4.0634Y-2.05
X4.0634Y-2.15
X4.0634Y-2.25
T6
X1.9Y-3.9016
X1.9Y-4.0984
X1.9Y-4.5094
X1.9Y-4.7063
X2.3921Y-3.9016
X2.3921Y-4.0984
X2.3921Y-4.5094
X2.3921Y-4.7063
X3.4701Y-4.5094
X3.4701Y-4.7063
X3.9622Y-4.5094
X3.9622Y-4.7063
X5.0579Y-3.9016
X5.0579Y-4.0984
X5.0579Y-4.5094
X5.0579Y-4.7063
X5.55Y-3.9016
X5.55Y-4.0984
X5.55Y-4.5094
X5.55Y-4.7063
T7
X5.05Y-2.3197
X5.05Y-2.7197
T8
X3.7935Y-3.99
X3.9865Y-3.99
T9
X4.7008Y-1.935
X4.7008Y-2.435
T0
M30
