%TF.GenerationSoftware,KiCad,Pcbnew,(5.99.0-12889-g70df3822b5)*%
%TF.CreationDate,2021-11-12T21:26:36+01:00*%
%TF.ProjectId,SimonSays,53696d6f-6e53-4617-9973-2e6b69636164,rev?*%
%TF.SameCoordinates,Original*%
%TF.FileFunction,Soldermask,Bot*%
%TF.FilePolarity,Negative*%
%FSLAX46Y46*%
G04 Gerber Fmt 4.6, Leading zero omitted, Abs format (unit mm)*
G04 Created by KiCad (PCBNEW (5.99.0-12889-g70df3822b5)) date 2021-11-12 21:26:36*
%MOMM*%
%LPD*%
G01*
G04 APERTURE LIST*
%ADD10R,2.800000X2.800000*%
%ADD11O,2.800000X2.800000*%
%ADD12R,1.700000X1.700000*%
%ADD13O,1.700000X1.700000*%
%ADD14R,1.600000X1.600000*%
%ADD15O,1.600000X1.600000*%
%ADD16C,1.600000*%
%ADD17R,2.000000X2.000000*%
%ADD18C,2.000000*%
%ADD19R,1.800000X1.800000*%
%ADD20C,1.800000*%
%ADD21O,3.048000X1.850000*%
%ADD22O,3.500000X3.500000*%
%ADD23R,2.000000X1.905000*%
%ADD24O,2.000000X1.905000*%
%ADD25C,2.300000*%
%ADD26C,2.600000*%
%ADD27R,3.000000X3.000000*%
%ADD28C,3.000000*%
G04 APERTURE END LIST*
D10*
%TO.C,D5*%
X128270000Y-69080000D03*
D11*
X128270000Y-58920000D03*
%TD*%
D12*
%TO.C,J1*%
X58973000Y-58743000D03*
D13*
X61513000Y-58743000D03*
X58973000Y-61283000D03*
X61513000Y-61283000D03*
X58973000Y-63823000D03*
X61513000Y-63823000D03*
%TD*%
D14*
%TO.C,U1*%
X77900000Y-91050000D03*
D15*
X80440000Y-91050000D03*
X82980000Y-91050000D03*
X85520000Y-91050000D03*
X88060000Y-91050000D03*
X90600000Y-91050000D03*
X93140000Y-91050000D03*
X95680000Y-91050000D03*
X98220000Y-91050000D03*
X100760000Y-91050000D03*
X103300000Y-91050000D03*
X105840000Y-91050000D03*
X108380000Y-91050000D03*
X110920000Y-91050000D03*
X110920000Y-83430000D03*
X108380000Y-83430000D03*
X105840000Y-83430000D03*
X103300000Y-83430000D03*
X100760000Y-83430000D03*
X98220000Y-83430000D03*
X95680000Y-83430000D03*
X93140000Y-83430000D03*
X90600000Y-83430000D03*
X88060000Y-83430000D03*
X85520000Y-83430000D03*
X82980000Y-83430000D03*
X80440000Y-83430000D03*
X77900000Y-83430000D03*
%TD*%
D14*
%TO.C,C3*%
X110490000Y-61705114D03*
D16*
X110490000Y-59205114D03*
%TD*%
D17*
%TO.C,LS1*%
X57200000Y-47900000D03*
D18*
X49600000Y-47900000D03*
%TD*%
D19*
%TO.C,D2*%
X119380000Y-115765000D03*
D20*
X119380000Y-118305000D03*
%TD*%
D16*
%TO.C,C8*%
X93150000Y-94100000D03*
X95650000Y-94100000D03*
%TD*%
D19*
%TO.C,D4*%
X119380000Y-100325000D03*
D20*
X119380000Y-102865000D03*
%TD*%
D21*
%TO.C,SW7*%
X128470000Y-104100000D03*
X140970000Y-104100000D03*
X128470000Y-99100000D03*
X140970000Y-99100000D03*
%TD*%
D16*
%TO.C,R2*%
X71120000Y-86868000D03*
D15*
X60960000Y-86868000D03*
%TD*%
D21*
%TO.C,SW2*%
X60760000Y-114540000D03*
X48260000Y-114540000D03*
X48260000Y-119540000D03*
X60760000Y-119540000D03*
%TD*%
D16*
%TO.C,C5*%
X95738000Y-80264000D03*
X93238000Y-80264000D03*
%TD*%
D21*
%TO.C,SW5*%
X128470000Y-119540000D03*
X140970000Y-119540000D03*
X128470000Y-114540000D03*
X140970000Y-114540000D03*
%TD*%
D12*
%TO.C,J2*%
X49072000Y-78540000D03*
D13*
X49072000Y-81080000D03*
X49072000Y-83620000D03*
X49072000Y-86160000D03*
X49072000Y-88700000D03*
X49072000Y-91240000D03*
%TD*%
D16*
%TO.C,C7*%
X57200000Y-91240000D03*
X54700000Y-91240000D03*
%TD*%
D21*
%TO.C,SW6*%
X48260000Y-99100000D03*
X60760000Y-99100000D03*
X48260000Y-104100000D03*
X60760000Y-104100000D03*
%TD*%
D22*
%TO.C,U2*%
X86550000Y-54610000D03*
D23*
X103210000Y-57150000D03*
D24*
X103210000Y-54610000D03*
X103210000Y-52070000D03*
%TD*%
D21*
%TO.C,SW4*%
X88140000Y-119540000D03*
X100640000Y-119540000D03*
X88140000Y-114540000D03*
X100640000Y-114540000D03*
%TD*%
D16*
%TO.C,R4*%
X71120000Y-83312000D03*
D15*
X60960000Y-83312000D03*
%TD*%
D16*
%TO.C,R5*%
X119380000Y-82296000D03*
D15*
X119380000Y-92456000D03*
%TD*%
D19*
%TO.C,D3*%
X69850000Y-100325000D03*
D20*
X69850000Y-102865000D03*
%TD*%
D16*
%TO.C,C2*%
X90100000Y-100100000D03*
X90100000Y-102600000D03*
%TD*%
%TO.C,C1*%
X107306000Y-100096001D03*
X107306000Y-102596001D03*
%TD*%
D12*
%TO.C,SW3*%
X128270000Y-50785001D03*
D13*
X128270000Y-48245001D03*
X128270000Y-45705001D03*
%TD*%
D19*
%TO.C,D1*%
X69850000Y-115765000D03*
D20*
X69850000Y-118305000D03*
%TD*%
D16*
%TO.C,C6*%
X99060000Y-80264000D03*
X101560000Y-80264000D03*
%TD*%
%TO.C,R3*%
X115316000Y-82296000D03*
D15*
X115316000Y-92456000D03*
%TD*%
D25*
%TO.C,Y1*%
X101256000Y-101346000D03*
X96356000Y-101346000D03*
%TD*%
D16*
%TO.C,R1*%
X60960000Y-91240000D03*
D15*
X71120000Y-91240000D03*
%TD*%
D12*
%TO.C,J3*%
X90590000Y-73660000D03*
D13*
X93130000Y-73660000D03*
X95670000Y-73660000D03*
X98210000Y-73660000D03*
%TD*%
D14*
%TO.C,C4*%
X110490000Y-49530000D03*
D16*
X110490000Y-52030000D03*
%TD*%
D18*
%TO.C,SW1*%
X57998000Y-75694000D03*
X57998000Y-69194000D03*
X62498000Y-69194000D03*
X62498000Y-75694000D03*
%TD*%
D26*
%TO.C,BT1*%
X95250000Y-44400000D03*
X80500000Y-66600000D03*
X108500000Y-66600000D03*
D27*
X119400000Y-49150000D03*
D28*
X119400000Y-61850000D03*
%TD*%
M02*
