%TF.GenerationSoftware,KiCad,Pcbnew,(5.99.0-12889-g70df3822b5)*%
%TF.CreationDate,2021-11-12T21:26:36+01:00*%
%TF.ProjectId,SimonSays,53696d6f-6e53-4617-9973-2e6b69636164,rev?*%
%TF.SameCoordinates,Original*%
%TF.FileFunction,Legend,Top*%
%TF.FilePolarity,Positive*%
%FSLAX46Y46*%
G04 Gerber Fmt 4.6, Leading zero omitted, Abs format (unit mm)*
G04 Created by KiCad (PCBNEW (5.99.0-12889-g70df3822b5)) date 2021-11-12 21:26:36*
%MOMM*%
%LPD*%
G01*
G04 APERTURE LIST*
%ADD10C,0.150000*%
%ADD11C,0.120000*%
G04 APERTURE END LIST*
D10*
%TO.C,D5*%
X128087380Y-66143095D02*
X127087380Y-66143095D01*
X127087380Y-65905000D01*
X127135000Y-65762142D01*
X127230238Y-65666904D01*
X127325476Y-65619285D01*
X127515952Y-65571666D01*
X127658809Y-65571666D01*
X127849285Y-65619285D01*
X127944523Y-65666904D01*
X128039761Y-65762142D01*
X128087380Y-65905000D01*
X128087380Y-66143095D01*
X127087380Y-64666904D02*
X127087380Y-65143095D01*
X127563571Y-65190714D01*
X127515952Y-65143095D01*
X127468333Y-65047857D01*
X127468333Y-64809761D01*
X127515952Y-64714523D01*
X127563571Y-64666904D01*
X127658809Y-64619285D01*
X127896904Y-64619285D01*
X127992142Y-64666904D01*
X128039761Y-64714523D01*
X128087380Y-64809761D01*
X128087380Y-65047857D01*
X128039761Y-65143095D01*
X127992142Y-65190714D01*
X126322380Y-69341904D02*
X125322380Y-69341904D01*
X126322380Y-68770476D02*
X125750952Y-69199047D01*
X125322380Y-68770476D02*
X125893809Y-69341904D01*
%TO.C,J1*%
X59909666Y-55865380D02*
X59909666Y-56579666D01*
X59862047Y-56722523D01*
X59766809Y-56817761D01*
X59623952Y-56865380D01*
X59528714Y-56865380D01*
X60909666Y-56865380D02*
X60338238Y-56865380D01*
X60623952Y-56865380D02*
X60623952Y-55865380D01*
X60528714Y-56008238D01*
X60433476Y-56103476D01*
X60338238Y-56151095D01*
%TO.C,U1*%
X89463095Y-87717380D02*
X89463095Y-88526904D01*
X89510714Y-88622142D01*
X89558333Y-88669761D01*
X89653571Y-88717380D01*
X89844047Y-88717380D01*
X89939285Y-88669761D01*
X89986904Y-88622142D01*
X90034523Y-88526904D01*
X90034523Y-87717380D01*
X91034523Y-88717380D02*
X90463095Y-88717380D01*
X90748809Y-88717380D02*
X90748809Y-87717380D01*
X90653571Y-87860238D01*
X90558333Y-87955476D01*
X90463095Y-88003095D01*
%TO.C,C3*%
X114657142Y-64301666D02*
X114704761Y-64349285D01*
X114752380Y-64492142D01*
X114752380Y-64587380D01*
X114704761Y-64730238D01*
X114609523Y-64825476D01*
X114514285Y-64873095D01*
X114323809Y-64920714D01*
X114180952Y-64920714D01*
X113990476Y-64873095D01*
X113895238Y-64825476D01*
X113800000Y-64730238D01*
X113752380Y-64587380D01*
X113752380Y-64492142D01*
X113800000Y-64349285D01*
X113847619Y-64301666D01*
X113752380Y-63968333D02*
X113752380Y-63349285D01*
X114133333Y-63682619D01*
X114133333Y-63539761D01*
X114180952Y-63444523D01*
X114228571Y-63396904D01*
X114323809Y-63349285D01*
X114561904Y-63349285D01*
X114657142Y-63396904D01*
X114704761Y-63444523D01*
X114752380Y-63539761D01*
X114752380Y-63825476D01*
X114704761Y-63920714D01*
X114657142Y-63968333D01*
%TO.C,LS1*%
X52757142Y-46172380D02*
X52280952Y-46172380D01*
X52280952Y-45172380D01*
X53042857Y-46124761D02*
X53185714Y-46172380D01*
X53423809Y-46172380D01*
X53519047Y-46124761D01*
X53566666Y-46077142D01*
X53614285Y-45981904D01*
X53614285Y-45886666D01*
X53566666Y-45791428D01*
X53519047Y-45743809D01*
X53423809Y-45696190D01*
X53233333Y-45648571D01*
X53138095Y-45600952D01*
X53090476Y-45553333D01*
X53042857Y-45458095D01*
X53042857Y-45362857D01*
X53090476Y-45267619D01*
X53138095Y-45220000D01*
X53233333Y-45172380D01*
X53471428Y-45172380D01*
X53614285Y-45220000D01*
X54566666Y-46172380D02*
X53995238Y-46172380D01*
X54280952Y-46172380D02*
X54280952Y-45172380D01*
X54185714Y-45315238D01*
X54090476Y-45410476D01*
X53995238Y-45458095D01*
X56829047Y-50511428D02*
X57590952Y-50511428D01*
X57210000Y-50892380D02*
X57210000Y-50130476D01*
%TO.C,D2*%
X118641904Y-114117380D02*
X118641904Y-113117380D01*
X118880000Y-113117380D01*
X119022857Y-113165000D01*
X119118095Y-113260238D01*
X119165714Y-113355476D01*
X119213333Y-113545952D01*
X119213333Y-113688809D01*
X119165714Y-113879285D01*
X119118095Y-113974523D01*
X119022857Y-114069761D01*
X118880000Y-114117380D01*
X118641904Y-114117380D01*
X119594285Y-113212619D02*
X119641904Y-113165000D01*
X119737142Y-113117380D01*
X119975238Y-113117380D01*
X120070476Y-113165000D01*
X120118095Y-113212619D01*
X120165714Y-113307857D01*
X120165714Y-113403095D01*
X120118095Y-113545952D01*
X119546666Y-114117380D01*
X120165714Y-114117380D01*
%TO.C,C8*%
X98317333Y-93568142D02*
X98269714Y-93615761D01*
X98126857Y-93663380D01*
X98031619Y-93663380D01*
X97888761Y-93615761D01*
X97793523Y-93520523D01*
X97745904Y-93425285D01*
X97698285Y-93234809D01*
X97698285Y-93091952D01*
X97745904Y-92901476D01*
X97793523Y-92806238D01*
X97888761Y-92711000D01*
X98031619Y-92663380D01*
X98126857Y-92663380D01*
X98269714Y-92711000D01*
X98317333Y-92758619D01*
X98888761Y-93091952D02*
X98793523Y-93044333D01*
X98745904Y-92996714D01*
X98698285Y-92901476D01*
X98698285Y-92853857D01*
X98745904Y-92758619D01*
X98793523Y-92711000D01*
X98888761Y-92663380D01*
X99079238Y-92663380D01*
X99174476Y-92711000D01*
X99222095Y-92758619D01*
X99269714Y-92853857D01*
X99269714Y-92901476D01*
X99222095Y-92996714D01*
X99174476Y-93044333D01*
X99079238Y-93091952D01*
X98888761Y-93091952D01*
X98793523Y-93139571D01*
X98745904Y-93187190D01*
X98698285Y-93282428D01*
X98698285Y-93472904D01*
X98745904Y-93568142D01*
X98793523Y-93615761D01*
X98888761Y-93663380D01*
X99079238Y-93663380D01*
X99174476Y-93615761D01*
X99222095Y-93568142D01*
X99269714Y-93472904D01*
X99269714Y-93282428D01*
X99222095Y-93187190D01*
X99174476Y-93139571D01*
X99079238Y-93091952D01*
%TO.C,D4*%
X118641904Y-98242380D02*
X118641904Y-97242380D01*
X118880000Y-97242380D01*
X119022857Y-97290000D01*
X119118095Y-97385238D01*
X119165714Y-97480476D01*
X119213333Y-97670952D01*
X119213333Y-97813809D01*
X119165714Y-98004285D01*
X119118095Y-98099523D01*
X119022857Y-98194761D01*
X118880000Y-98242380D01*
X118641904Y-98242380D01*
X120070476Y-97575714D02*
X120070476Y-98242380D01*
X119832380Y-97194761D02*
X119594285Y-97909047D01*
X120213333Y-97909047D01*
%TO.C,SW7*%
X133286666Y-101964761D02*
X133429523Y-102012380D01*
X133667619Y-102012380D01*
X133762857Y-101964761D01*
X133810476Y-101917142D01*
X133858095Y-101821904D01*
X133858095Y-101726666D01*
X133810476Y-101631428D01*
X133762857Y-101583809D01*
X133667619Y-101536190D01*
X133477142Y-101488571D01*
X133381904Y-101440952D01*
X133334285Y-101393333D01*
X133286666Y-101298095D01*
X133286666Y-101202857D01*
X133334285Y-101107619D01*
X133381904Y-101060000D01*
X133477142Y-101012380D01*
X133715238Y-101012380D01*
X133858095Y-101060000D01*
X134191428Y-101012380D02*
X134429523Y-102012380D01*
X134620000Y-101298095D01*
X134810476Y-102012380D01*
X135048571Y-101012380D01*
X135334285Y-101012380D02*
X136000952Y-101012380D01*
X135572380Y-102012380D01*
%TO.C,R2*%
X63841333Y-87320380D02*
X63508000Y-86844190D01*
X63269904Y-87320380D02*
X63269904Y-86320380D01*
X63650857Y-86320380D01*
X63746095Y-86368000D01*
X63793714Y-86415619D01*
X63841333Y-86510857D01*
X63841333Y-86653714D01*
X63793714Y-86748952D01*
X63746095Y-86796571D01*
X63650857Y-86844190D01*
X63269904Y-86844190D01*
X64222285Y-86415619D02*
X64269904Y-86368000D01*
X64365142Y-86320380D01*
X64603238Y-86320380D01*
X64698476Y-86368000D01*
X64746095Y-86415619D01*
X64793714Y-86510857D01*
X64793714Y-86606095D01*
X64746095Y-86748952D01*
X64174666Y-87320380D01*
X64793714Y-87320380D01*
%TO.C,SW2*%
X53276666Y-117484761D02*
X53419523Y-117532380D01*
X53657619Y-117532380D01*
X53752857Y-117484761D01*
X53800476Y-117437142D01*
X53848095Y-117341904D01*
X53848095Y-117246666D01*
X53800476Y-117151428D01*
X53752857Y-117103809D01*
X53657619Y-117056190D01*
X53467142Y-117008571D01*
X53371904Y-116960952D01*
X53324285Y-116913333D01*
X53276666Y-116818095D01*
X53276666Y-116722857D01*
X53324285Y-116627619D01*
X53371904Y-116580000D01*
X53467142Y-116532380D01*
X53705238Y-116532380D01*
X53848095Y-116580000D01*
X54181428Y-116532380D02*
X54419523Y-117532380D01*
X54610000Y-116818095D01*
X54800476Y-117532380D01*
X55038571Y-116532380D01*
X55371904Y-116627619D02*
X55419523Y-116580000D01*
X55514761Y-116532380D01*
X55752857Y-116532380D01*
X55848095Y-116580000D01*
X55895714Y-116627619D01*
X55943333Y-116722857D01*
X55943333Y-116818095D01*
X55895714Y-116960952D01*
X55324285Y-117532380D01*
X55943333Y-117532380D01*
%TO.C,C5*%
X89475333Y-79732142D02*
X89427714Y-79779761D01*
X89284857Y-79827380D01*
X89189619Y-79827380D01*
X89046761Y-79779761D01*
X88951523Y-79684523D01*
X88903904Y-79589285D01*
X88856285Y-79398809D01*
X88856285Y-79255952D01*
X88903904Y-79065476D01*
X88951523Y-78970238D01*
X89046761Y-78875000D01*
X89189619Y-78827380D01*
X89284857Y-78827380D01*
X89427714Y-78875000D01*
X89475333Y-78922619D01*
X90380095Y-78827380D02*
X89903904Y-78827380D01*
X89856285Y-79303571D01*
X89903904Y-79255952D01*
X89999142Y-79208333D01*
X90237238Y-79208333D01*
X90332476Y-79255952D01*
X90380095Y-79303571D01*
X90427714Y-79398809D01*
X90427714Y-79636904D01*
X90380095Y-79732142D01*
X90332476Y-79779761D01*
X90237238Y-79827380D01*
X89999142Y-79827380D01*
X89903904Y-79779761D01*
X89856285Y-79732142D01*
%TO.C,SW5*%
X133286666Y-117404761D02*
X133429523Y-117452380D01*
X133667619Y-117452380D01*
X133762857Y-117404761D01*
X133810476Y-117357142D01*
X133858095Y-117261904D01*
X133858095Y-117166666D01*
X133810476Y-117071428D01*
X133762857Y-117023809D01*
X133667619Y-116976190D01*
X133477142Y-116928571D01*
X133381904Y-116880952D01*
X133334285Y-116833333D01*
X133286666Y-116738095D01*
X133286666Y-116642857D01*
X133334285Y-116547619D01*
X133381904Y-116500000D01*
X133477142Y-116452380D01*
X133715238Y-116452380D01*
X133858095Y-116500000D01*
X134191428Y-116452380D02*
X134429523Y-117452380D01*
X134620000Y-116738095D01*
X134810476Y-117452380D01*
X135048571Y-116452380D01*
X135905714Y-116452380D02*
X135429523Y-116452380D01*
X135381904Y-116928571D01*
X135429523Y-116880952D01*
X135524761Y-116833333D01*
X135762857Y-116833333D01*
X135858095Y-116880952D01*
X135905714Y-116928571D01*
X135953333Y-117023809D01*
X135953333Y-117261904D01*
X135905714Y-117357142D01*
X135858095Y-117404761D01*
X135762857Y-117452380D01*
X135524761Y-117452380D01*
X135429523Y-117404761D01*
X135381904Y-117357142D01*
%TO.C,J2*%
X45984380Y-92208333D02*
X46698666Y-92208333D01*
X46841523Y-92255952D01*
X46936761Y-92351190D01*
X46984380Y-92494047D01*
X46984380Y-92589285D01*
X46079619Y-91779761D02*
X46032000Y-91732142D01*
X45984380Y-91636904D01*
X45984380Y-91398809D01*
X46032000Y-91303571D01*
X46079619Y-91255952D01*
X46174857Y-91208333D01*
X46270095Y-91208333D01*
X46412952Y-91255952D01*
X46984380Y-91827380D01*
X46984380Y-91208333D01*
%TO.C,C7*%
X58176333Y-94391142D02*
X58128714Y-94438761D01*
X57985857Y-94486380D01*
X57890619Y-94486380D01*
X57747761Y-94438761D01*
X57652523Y-94343523D01*
X57604904Y-94248285D01*
X57557285Y-94057809D01*
X57557285Y-93914952D01*
X57604904Y-93724476D01*
X57652523Y-93629238D01*
X57747761Y-93534000D01*
X57890619Y-93486380D01*
X57985857Y-93486380D01*
X58128714Y-93534000D01*
X58176333Y-93581619D01*
X58509666Y-93486380D02*
X59176333Y-93486380D01*
X58747761Y-94486380D01*
%TO.C,SW6*%
X53276666Y-102044761D02*
X53419523Y-102092380D01*
X53657619Y-102092380D01*
X53752857Y-102044761D01*
X53800476Y-101997142D01*
X53848095Y-101901904D01*
X53848095Y-101806666D01*
X53800476Y-101711428D01*
X53752857Y-101663809D01*
X53657619Y-101616190D01*
X53467142Y-101568571D01*
X53371904Y-101520952D01*
X53324285Y-101473333D01*
X53276666Y-101378095D01*
X53276666Y-101282857D01*
X53324285Y-101187619D01*
X53371904Y-101140000D01*
X53467142Y-101092380D01*
X53705238Y-101092380D01*
X53848095Y-101140000D01*
X54181428Y-101092380D02*
X54419523Y-102092380D01*
X54610000Y-101378095D01*
X54800476Y-102092380D01*
X55038571Y-101092380D01*
X55848095Y-101092380D02*
X55657619Y-101092380D01*
X55562380Y-101140000D01*
X55514761Y-101187619D01*
X55419523Y-101330476D01*
X55371904Y-101520952D01*
X55371904Y-101901904D01*
X55419523Y-101997142D01*
X55467142Y-102044761D01*
X55562380Y-102092380D01*
X55752857Y-102092380D01*
X55848095Y-102044761D01*
X55895714Y-101997142D01*
X55943333Y-101901904D01*
X55943333Y-101663809D01*
X55895714Y-101568571D01*
X55848095Y-101520952D01*
X55752857Y-101473333D01*
X55562380Y-101473333D01*
X55467142Y-101520952D01*
X55419523Y-101568571D01*
X55371904Y-101663809D01*
%TO.C,U2*%
X90678095Y-50887380D02*
X90678095Y-51696904D01*
X90725714Y-51792142D01*
X90773333Y-51839761D01*
X90868571Y-51887380D01*
X91059047Y-51887380D01*
X91154285Y-51839761D01*
X91201904Y-51792142D01*
X91249523Y-51696904D01*
X91249523Y-50887380D01*
X91678095Y-50982619D02*
X91725714Y-50935000D01*
X91820952Y-50887380D01*
X92059047Y-50887380D01*
X92154285Y-50935000D01*
X92201904Y-50982619D01*
X92249523Y-51077857D01*
X92249523Y-51173095D01*
X92201904Y-51315952D01*
X91630476Y-51887380D01*
X92249523Y-51887380D01*
%TO.C,SW4*%
X92956666Y-117404761D02*
X93099523Y-117452380D01*
X93337619Y-117452380D01*
X93432857Y-117404761D01*
X93480476Y-117357142D01*
X93528095Y-117261904D01*
X93528095Y-117166666D01*
X93480476Y-117071428D01*
X93432857Y-117023809D01*
X93337619Y-116976190D01*
X93147142Y-116928571D01*
X93051904Y-116880952D01*
X93004285Y-116833333D01*
X92956666Y-116738095D01*
X92956666Y-116642857D01*
X93004285Y-116547619D01*
X93051904Y-116500000D01*
X93147142Y-116452380D01*
X93385238Y-116452380D01*
X93528095Y-116500000D01*
X93861428Y-116452380D02*
X94099523Y-117452380D01*
X94290000Y-116738095D01*
X94480476Y-117452380D01*
X94718571Y-116452380D01*
X95528095Y-116785714D02*
X95528095Y-117452380D01*
X95290000Y-116404761D02*
X95051904Y-117119047D01*
X95670952Y-117119047D01*
%TO.C,R4*%
X63968334Y-83764380D02*
X63635001Y-83288190D01*
X63396905Y-83764380D02*
X63396905Y-82764380D01*
X63777858Y-82764380D01*
X63873096Y-82812000D01*
X63920715Y-82859619D01*
X63968334Y-82954857D01*
X63968334Y-83097714D01*
X63920715Y-83192952D01*
X63873096Y-83240571D01*
X63777858Y-83288190D01*
X63396905Y-83288190D01*
X64825477Y-83097714D02*
X64825477Y-83764380D01*
X64587381Y-82716761D02*
X64349286Y-83431047D01*
X64968334Y-83431047D01*
%TO.C,R5*%
X119832380Y-89447666D02*
X119356190Y-89781000D01*
X119832380Y-90019095D02*
X118832380Y-90019095D01*
X118832380Y-89638142D01*
X118880000Y-89542904D01*
X118927619Y-89495285D01*
X119022857Y-89447666D01*
X119165714Y-89447666D01*
X119260952Y-89495285D01*
X119308571Y-89542904D01*
X119356190Y-89638142D01*
X119356190Y-90019095D01*
X118832380Y-88542904D02*
X118832380Y-89019095D01*
X119308571Y-89066714D01*
X119260952Y-89019095D01*
X119213333Y-88923857D01*
X119213333Y-88685761D01*
X119260952Y-88590523D01*
X119308571Y-88542904D01*
X119403809Y-88495285D01*
X119641904Y-88495285D01*
X119737142Y-88542904D01*
X119784761Y-88590523D01*
X119832380Y-88685761D01*
X119832380Y-88923857D01*
X119784761Y-89019095D01*
X119737142Y-89066714D01*
%TO.C,D3*%
X69111904Y-98242380D02*
X69111904Y-97242380D01*
X69350000Y-97242380D01*
X69492857Y-97290000D01*
X69588095Y-97385238D01*
X69635714Y-97480476D01*
X69683333Y-97670952D01*
X69683333Y-97813809D01*
X69635714Y-98004285D01*
X69588095Y-98099523D01*
X69492857Y-98194761D01*
X69350000Y-98242380D01*
X69111904Y-98242380D01*
X70016666Y-97242380D02*
X70635714Y-97242380D01*
X70302380Y-97623333D01*
X70445238Y-97623333D01*
X70540476Y-97670952D01*
X70588095Y-97718571D01*
X70635714Y-97813809D01*
X70635714Y-98051904D01*
X70588095Y-98147142D01*
X70540476Y-98194761D01*
X70445238Y-98242380D01*
X70159523Y-98242380D01*
X70064285Y-98194761D01*
X70016666Y-98147142D01*
%TO.C,C2*%
X87757142Y-104066666D02*
X87804761Y-104114285D01*
X87852380Y-104257142D01*
X87852380Y-104352380D01*
X87804761Y-104495238D01*
X87709523Y-104590476D01*
X87614285Y-104638095D01*
X87423809Y-104685714D01*
X87280952Y-104685714D01*
X87090476Y-104638095D01*
X86995238Y-104590476D01*
X86900000Y-104495238D01*
X86852380Y-104352380D01*
X86852380Y-104257142D01*
X86900000Y-104114285D01*
X86947619Y-104066666D01*
X86947619Y-103685714D02*
X86900000Y-103638095D01*
X86852380Y-103542857D01*
X86852380Y-103304761D01*
X86900000Y-103209523D01*
X86947619Y-103161904D01*
X87042857Y-103114285D01*
X87138095Y-103114285D01*
X87280952Y-103161904D01*
X87852380Y-103733333D01*
X87852380Y-103114285D01*
%TO.C,C1*%
X110212142Y-104306666D02*
X110259761Y-104354285D01*
X110307380Y-104497142D01*
X110307380Y-104592380D01*
X110259761Y-104735238D01*
X110164523Y-104830476D01*
X110069285Y-104878095D01*
X109878809Y-104925714D01*
X109735952Y-104925714D01*
X109545476Y-104878095D01*
X109450238Y-104830476D01*
X109355000Y-104735238D01*
X109307380Y-104592380D01*
X109307380Y-104497142D01*
X109355000Y-104354285D01*
X109402619Y-104306666D01*
X110307380Y-103354285D02*
X110307380Y-103925714D01*
X110307380Y-103640000D02*
X109307380Y-103640000D01*
X109450238Y-103735238D01*
X109545476Y-103830476D01*
X109593095Y-103925714D01*
%TO.C,SW3*%
X126134761Y-52768334D02*
X126182380Y-52625477D01*
X126182380Y-52387381D01*
X126134761Y-52292143D01*
X126087142Y-52244524D01*
X125991904Y-52196905D01*
X125896666Y-52196905D01*
X125801428Y-52244524D01*
X125753809Y-52292143D01*
X125706190Y-52387381D01*
X125658571Y-52577858D01*
X125610952Y-52673096D01*
X125563333Y-52720715D01*
X125468095Y-52768334D01*
X125372857Y-52768334D01*
X125277619Y-52720715D01*
X125230000Y-52673096D01*
X125182380Y-52577858D01*
X125182380Y-52339762D01*
X125230000Y-52196905D01*
X125182380Y-51863572D02*
X126182380Y-51625477D01*
X125468095Y-51435001D01*
X126182380Y-51244524D01*
X125182380Y-51006429D01*
X125182380Y-50720715D02*
X125182380Y-50101667D01*
X125563333Y-50435001D01*
X125563333Y-50292143D01*
X125610952Y-50196905D01*
X125658571Y-50149286D01*
X125753809Y-50101667D01*
X125991904Y-50101667D01*
X126087142Y-50149286D01*
X126134761Y-50196905D01*
X126182380Y-50292143D01*
X126182380Y-50577858D01*
X126134761Y-50673096D01*
X126087142Y-50720715D01*
%TO.C,D1*%
X69111904Y-114117380D02*
X69111904Y-113117380D01*
X69350000Y-113117380D01*
X69492857Y-113165000D01*
X69588095Y-113260238D01*
X69635714Y-113355476D01*
X69683333Y-113545952D01*
X69683333Y-113688809D01*
X69635714Y-113879285D01*
X69588095Y-113974523D01*
X69492857Y-114069761D01*
X69350000Y-114117380D01*
X69111904Y-114117380D01*
X70635714Y-114117380D02*
X70064285Y-114117380D01*
X70350000Y-114117380D02*
X70350000Y-113117380D01*
X70254761Y-113260238D01*
X70159523Y-113355476D01*
X70064285Y-113403095D01*
%TO.C,C6*%
X104354333Y-79732142D02*
X104306714Y-79779761D01*
X104163857Y-79827380D01*
X104068619Y-79827380D01*
X103925761Y-79779761D01*
X103830523Y-79684523D01*
X103782904Y-79589285D01*
X103735285Y-79398809D01*
X103735285Y-79255952D01*
X103782904Y-79065476D01*
X103830523Y-78970238D01*
X103925761Y-78875000D01*
X104068619Y-78827380D01*
X104163857Y-78827380D01*
X104306714Y-78875000D01*
X104354333Y-78922619D01*
X105211476Y-78827380D02*
X105021000Y-78827380D01*
X104925761Y-78875000D01*
X104878142Y-78922619D01*
X104782904Y-79065476D01*
X104735285Y-79255952D01*
X104735285Y-79636904D01*
X104782904Y-79732142D01*
X104830523Y-79779761D01*
X104925761Y-79827380D01*
X105116238Y-79827380D01*
X105211476Y-79779761D01*
X105259095Y-79732142D01*
X105306714Y-79636904D01*
X105306714Y-79398809D01*
X105259095Y-79303571D01*
X105211476Y-79255952D01*
X105116238Y-79208333D01*
X104925761Y-79208333D01*
X104830523Y-79255952D01*
X104782904Y-79303571D01*
X104735285Y-79398809D01*
%TO.C,R3*%
X115768380Y-89447666D02*
X115292190Y-89781000D01*
X115768380Y-90019095D02*
X114768380Y-90019095D01*
X114768380Y-89638142D01*
X114816000Y-89542904D01*
X114863619Y-89495285D01*
X114958857Y-89447666D01*
X115101714Y-89447666D01*
X115196952Y-89495285D01*
X115244571Y-89542904D01*
X115292190Y-89638142D01*
X115292190Y-90019095D01*
X114768380Y-89114333D02*
X114768380Y-88495285D01*
X115149333Y-88828619D01*
X115149333Y-88685761D01*
X115196952Y-88590523D01*
X115244571Y-88542904D01*
X115339809Y-88495285D01*
X115577904Y-88495285D01*
X115673142Y-88542904D01*
X115720761Y-88590523D01*
X115768380Y-88685761D01*
X115768380Y-88971476D01*
X115720761Y-89066714D01*
X115673142Y-89114333D01*
%TO.C,Y1*%
X98329809Y-101576190D02*
X98329809Y-102052380D01*
X97996476Y-101052380D02*
X98329809Y-101576190D01*
X98663142Y-101052380D01*
X99520285Y-102052380D02*
X98948857Y-102052380D01*
X99234571Y-102052380D02*
X99234571Y-101052380D01*
X99139333Y-101195238D01*
X99044095Y-101290476D01*
X98948857Y-101338095D01*
%TO.C,R1*%
X67753333Y-91637380D02*
X67420000Y-91161190D01*
X67181904Y-91637380D02*
X67181904Y-90637380D01*
X67562857Y-90637380D01*
X67658095Y-90685000D01*
X67705714Y-90732619D01*
X67753333Y-90827857D01*
X67753333Y-90970714D01*
X67705714Y-91065952D01*
X67658095Y-91113571D01*
X67562857Y-91161190D01*
X67181904Y-91161190D01*
X68705714Y-91637380D02*
X68134285Y-91637380D01*
X68420000Y-91637380D02*
X68420000Y-90637380D01*
X68324761Y-90780238D01*
X68229523Y-90875476D01*
X68134285Y-90923095D01*
%TO.C,J3*%
X87550666Y-72604380D02*
X87550666Y-73318666D01*
X87503047Y-73461523D01*
X87407809Y-73556761D01*
X87264952Y-73604380D01*
X87169714Y-73604380D01*
X87931619Y-72604380D02*
X88550666Y-72604380D01*
X88217333Y-72985333D01*
X88360190Y-72985333D01*
X88455428Y-73032952D01*
X88503047Y-73080571D01*
X88550666Y-73175809D01*
X88550666Y-73413904D01*
X88503047Y-73509142D01*
X88455428Y-73556761D01*
X88360190Y-73604380D01*
X88074476Y-73604380D01*
X87979238Y-73556761D01*
X87931619Y-73509142D01*
X97487000Y-76223761D02*
X97587000Y-76271380D01*
X97753666Y-76271380D01*
X97820333Y-76223761D01*
X97853666Y-76176142D01*
X97887000Y-76080904D01*
X97887000Y-75985666D01*
X97853666Y-75890428D01*
X97820333Y-75842809D01*
X97753666Y-75795190D01*
X97620333Y-75747571D01*
X97553666Y-75699952D01*
X97520333Y-75652333D01*
X97487000Y-75557095D01*
X97487000Y-75461857D01*
X97520333Y-75366619D01*
X97553666Y-75319000D01*
X97620333Y-75271380D01*
X97787000Y-75271380D01*
X97887000Y-75319000D01*
X98187000Y-76271380D02*
X98187000Y-75271380D01*
X98353666Y-75271380D01*
X98453666Y-75319000D01*
X98520333Y-75414238D01*
X98553666Y-75509476D01*
X98587000Y-75699952D01*
X98587000Y-75842809D01*
X98553666Y-76033285D01*
X98520333Y-76128523D01*
X98453666Y-76223761D01*
X98353666Y-76271380D01*
X98187000Y-76271380D01*
X98853666Y-75985666D02*
X99187000Y-75985666D01*
X98787000Y-76271380D02*
X99020333Y-75271380D01*
X99253666Y-76271380D01*
X90056666Y-75319000D02*
X89990000Y-75271380D01*
X89890000Y-75271380D01*
X89790000Y-75319000D01*
X89723333Y-75414238D01*
X89690000Y-75509476D01*
X89656666Y-75699952D01*
X89656666Y-75842809D01*
X89690000Y-76033285D01*
X89723333Y-76128523D01*
X89790000Y-76223761D01*
X89890000Y-76271380D01*
X89956666Y-76271380D01*
X90056666Y-76223761D01*
X90090000Y-76176142D01*
X90090000Y-75842809D01*
X89956666Y-75842809D01*
X90390000Y-76271380D02*
X90390000Y-75271380D01*
X90790000Y-76271380D01*
X90790000Y-75271380D01*
X91123333Y-76271380D02*
X91123333Y-75271380D01*
X91290000Y-75271380D01*
X91390000Y-75319000D01*
X91456666Y-75414238D01*
X91490000Y-75509476D01*
X91523333Y-75699952D01*
X91523333Y-75842809D01*
X91490000Y-76033285D01*
X91456666Y-76128523D01*
X91390000Y-76223761D01*
X91290000Y-76271380D01*
X91123333Y-76271380D01*
X94836666Y-76223761D02*
X94936666Y-76271380D01*
X95103333Y-76271380D01*
X95170000Y-76223761D01*
X95203333Y-76176142D01*
X95236666Y-76080904D01*
X95236666Y-75985666D01*
X95203333Y-75890428D01*
X95170000Y-75842809D01*
X95103333Y-75795190D01*
X94970000Y-75747571D01*
X94903333Y-75699952D01*
X94870000Y-75652333D01*
X94836666Y-75557095D01*
X94836666Y-75461857D01*
X94870000Y-75366619D01*
X94903333Y-75319000D01*
X94970000Y-75271380D01*
X95136666Y-75271380D01*
X95236666Y-75319000D01*
X95936666Y-76176142D02*
X95903333Y-76223761D01*
X95803333Y-76271380D01*
X95736666Y-76271380D01*
X95636666Y-76223761D01*
X95570000Y-76128523D01*
X95536666Y-76033285D01*
X95503333Y-75842809D01*
X95503333Y-75699952D01*
X95536666Y-75509476D01*
X95570000Y-75414238D01*
X95636666Y-75319000D01*
X95736666Y-75271380D01*
X95803333Y-75271380D01*
X95903333Y-75319000D01*
X95936666Y-75366619D01*
X96570000Y-76271380D02*
X96236666Y-76271380D01*
X96236666Y-75271380D01*
X92196666Y-75271380D02*
X92430000Y-76271380D01*
X92663333Y-75271380D01*
X92896666Y-76271380D02*
X92896666Y-75271380D01*
X93063333Y-75271380D01*
X93163333Y-75319000D01*
X93230000Y-75414238D01*
X93263333Y-75509476D01*
X93296666Y-75699952D01*
X93296666Y-75842809D01*
X93263333Y-76033285D01*
X93230000Y-76128523D01*
X93163333Y-76223761D01*
X93063333Y-76271380D01*
X92896666Y-76271380D01*
X93596666Y-76271380D02*
X93596666Y-75271380D01*
X93763333Y-75271380D01*
X93863333Y-75319000D01*
X93930000Y-75414238D01*
X93963333Y-75509476D01*
X93996666Y-75699952D01*
X93996666Y-75842809D01*
X93963333Y-76033285D01*
X93930000Y-76128523D01*
X93863333Y-76223761D01*
X93763333Y-76271380D01*
X93596666Y-76271380D01*
%TO.C,C4*%
X114657142Y-53125666D02*
X114704761Y-53173285D01*
X114752380Y-53316142D01*
X114752380Y-53411380D01*
X114704761Y-53554238D01*
X114609523Y-53649476D01*
X114514285Y-53697095D01*
X114323809Y-53744714D01*
X114180952Y-53744714D01*
X113990476Y-53697095D01*
X113895238Y-53649476D01*
X113800000Y-53554238D01*
X113752380Y-53411380D01*
X113752380Y-53316142D01*
X113800000Y-53173285D01*
X113847619Y-53125666D01*
X114085714Y-52268523D02*
X114752380Y-52268523D01*
X113704761Y-52506619D02*
X114419047Y-52744714D01*
X114419047Y-52125666D01*
%TO.C,SW1*%
X59204666Y-72848761D02*
X59347523Y-72896380D01*
X59585619Y-72896380D01*
X59680857Y-72848761D01*
X59728476Y-72801142D01*
X59776095Y-72705904D01*
X59776095Y-72610666D01*
X59728476Y-72515428D01*
X59680857Y-72467809D01*
X59585619Y-72420190D01*
X59395142Y-72372571D01*
X59299904Y-72324952D01*
X59252285Y-72277333D01*
X59204666Y-72182095D01*
X59204666Y-72086857D01*
X59252285Y-71991619D01*
X59299904Y-71944000D01*
X59395142Y-71896380D01*
X59633238Y-71896380D01*
X59776095Y-71944000D01*
X60109428Y-71896380D02*
X60347523Y-72896380D01*
X60538000Y-72182095D01*
X60728476Y-72896380D01*
X60966571Y-71896380D01*
X61871333Y-72896380D02*
X61299904Y-72896380D01*
X61585619Y-72896380D02*
X61585619Y-71896380D01*
X61490380Y-72039238D01*
X61395142Y-72134476D01*
X61299904Y-72182095D01*
%TO.C,kibuzzard-6160B392*%
G36*
X132801717Y-49869328D02*
G01*
X132898356Y-49934812D01*
X132949068Y-49999371D01*
X132979495Y-50076629D01*
X132989638Y-50166588D01*
X132979584Y-50256369D01*
X132949421Y-50333099D01*
X132899150Y-50396775D01*
X132803106Y-50461069D01*
X132695950Y-50482500D01*
X132588596Y-50460473D01*
X132491956Y-50394394D01*
X132441245Y-50329747D01*
X132410818Y-50253283D01*
X132400675Y-50165000D01*
X132410729Y-50076717D01*
X132440892Y-50000253D01*
X132491163Y-49935606D01*
X132587206Y-49869527D01*
X132694363Y-49847500D01*
X132801717Y-49869328D01*
G37*
G36*
X135914639Y-49059233D02*
G01*
X136022499Y-49075232D01*
X136128271Y-49101727D01*
X136230937Y-49138461D01*
X136329508Y-49185082D01*
X136423034Y-49241139D01*
X136510616Y-49306094D01*
X136591409Y-49379321D01*
X136664636Y-49460114D01*
X136729591Y-49547696D01*
X136785649Y-49641223D01*
X136832269Y-49739794D01*
X136869004Y-49842460D01*
X136895498Y-49948232D01*
X136911498Y-50056091D01*
X136916848Y-50165000D01*
X136911498Y-50273909D01*
X136895498Y-50381768D01*
X136869004Y-50487540D01*
X136832269Y-50590206D01*
X136785649Y-50688777D01*
X136729591Y-50782304D01*
X136664636Y-50869886D01*
X136591409Y-50950679D01*
X136510616Y-51023906D01*
X136423034Y-51088861D01*
X136329508Y-51144918D01*
X136230937Y-51191539D01*
X136128271Y-51228273D01*
X136022499Y-51254768D01*
X135914639Y-51270767D01*
X135805730Y-51276118D01*
X131607058Y-51276118D01*
X131498149Y-51270767D01*
X131390289Y-51254768D01*
X131284517Y-51228273D01*
X131181851Y-51191539D01*
X131083280Y-51144918D01*
X130989754Y-51088861D01*
X130902172Y-51023906D01*
X130821379Y-50950679D01*
X130748152Y-50869886D01*
X130683197Y-50782304D01*
X130627139Y-50688777D01*
X130580519Y-50590206D01*
X130543784Y-50487540D01*
X130517290Y-50381768D01*
X130501290Y-50273909D01*
X130496330Y-50172938D01*
X132119688Y-50172938D01*
X132130255Y-50289420D01*
X132161955Y-50397569D01*
X132214789Y-50497383D01*
X132288756Y-50588863D01*
X132377805Y-50665261D01*
X132475883Y-50719831D01*
X132582990Y-50752573D01*
X132699125Y-50763488D01*
X132815013Y-50752425D01*
X132921375Y-50719236D01*
X133018213Y-50663921D01*
X133086731Y-50603150D01*
X133373813Y-50603150D01*
X133383338Y-50684113D01*
X133425406Y-50729356D01*
X133513513Y-50744438D01*
X133595269Y-50733722D01*
X133637338Y-50701575D01*
X133652419Y-50660300D01*
X133654800Y-50604738D01*
X133654800Y-50603150D01*
X134385050Y-50603150D01*
X134394575Y-50684113D01*
X134436644Y-50729356D01*
X134524750Y-50744438D01*
X134606507Y-50733722D01*
X134648575Y-50701575D01*
X134663657Y-50660300D01*
X134666038Y-50604738D01*
X134666038Y-50304700D01*
X134977188Y-50304700D01*
X135058150Y-50296763D01*
X135103394Y-50253503D01*
X135118475Y-50165000D01*
X135108157Y-50082847D01*
X135077200Y-50039587D01*
X135035132Y-50024506D01*
X134978775Y-50022125D01*
X134666038Y-50022125D01*
X134666038Y-49861787D01*
X135151813Y-49861787D01*
X135208169Y-49859406D01*
X135250238Y-49845119D01*
X135283575Y-49803050D01*
X135293100Y-49722087D01*
X135283575Y-49641125D01*
X135251032Y-49598262D01*
X135209757Y-49583181D01*
X135154988Y-49580800D01*
X134529513Y-49580800D01*
X134415213Y-49610169D01*
X134385050Y-49720500D01*
X134385050Y-50603150D01*
X133654800Y-50603150D01*
X133654800Y-50304700D01*
X133965950Y-50304700D01*
X134046913Y-50296763D01*
X134092157Y-50253503D01*
X134107238Y-50165000D01*
X134096919Y-50082847D01*
X134065963Y-50039587D01*
X134023894Y-50024506D01*
X133967538Y-50022125D01*
X133654800Y-50022125D01*
X133654800Y-49861787D01*
X134140575Y-49861787D01*
X134196932Y-49859406D01*
X134239000Y-49845119D01*
X134272338Y-49803050D01*
X134281863Y-49722087D01*
X134272338Y-49641125D01*
X134239794Y-49598262D01*
X134198519Y-49583181D01*
X134143750Y-49580800D01*
X133518275Y-49580800D01*
X133403975Y-49610169D01*
X133373813Y-49720500D01*
X133373813Y-50603150D01*
X133086731Y-50603150D01*
X133105525Y-50586481D01*
X133177756Y-50493315D01*
X133229350Y-50390822D01*
X133260306Y-50279002D01*
X133270625Y-50157856D01*
X133259810Y-50037157D01*
X133227366Y-49926677D01*
X133173292Y-49826416D01*
X133097588Y-49736375D01*
X133007199Y-49662060D01*
X132909072Y-49608978D01*
X132803206Y-49577129D01*
X132689600Y-49566512D01*
X132581650Y-49577625D01*
X132476875Y-49610962D01*
X132379641Y-49663747D01*
X132294313Y-49733200D01*
X132222875Y-49820314D01*
X132167313Y-49926081D01*
X132131594Y-50045342D01*
X132119688Y-50172938D01*
X130496330Y-50172938D01*
X130495940Y-50165000D01*
X130501290Y-50056091D01*
X130517290Y-49948232D01*
X130543784Y-49842460D01*
X130580519Y-49739794D01*
X130627139Y-49641223D01*
X130683197Y-49547696D01*
X130748152Y-49460114D01*
X130821379Y-49379321D01*
X130902172Y-49306094D01*
X130989754Y-49241139D01*
X131083280Y-49185082D01*
X131181851Y-49138461D01*
X131284517Y-49101727D01*
X131390289Y-49075232D01*
X131498149Y-49059233D01*
X131607058Y-49053882D01*
X135805730Y-49053882D01*
X135914639Y-49059233D01*
G37*
%TO.C,kibuzzard-61609E2B*%
G36*
X49736413Y-58828806D02*
G01*
X49525275Y-58828806D01*
X49630050Y-58611319D01*
X49736413Y-58828806D01*
G37*
G36*
X55141850Y-58464475D02*
G01*
X55187888Y-58570044D01*
X55141850Y-58674819D01*
X55048188Y-58709744D01*
X54848163Y-58709744D01*
X54848163Y-58428756D01*
X55046600Y-58428756D01*
X55141850Y-58464475D01*
G37*
G36*
X48534808Y-57616089D02*
G01*
X55979918Y-57616089D01*
X56721192Y-58728000D01*
X55979918Y-59839911D01*
X48534808Y-59839911D01*
X48534808Y-59197106D01*
X49047438Y-59197106D01*
X49070457Y-59251081D01*
X49139513Y-59298706D01*
X49224444Y-59325694D01*
X49275244Y-59310613D01*
X49303819Y-59281244D01*
X49328425Y-59235206D01*
X49410975Y-59063756D01*
X49850713Y-59063756D01*
X49933263Y-59235206D01*
X49957869Y-59282831D01*
X49986444Y-59312994D01*
X50037244Y-59327281D01*
X50122175Y-59300294D01*
X50191232Y-59251478D01*
X50214250Y-59197106D01*
X50187263Y-59116144D01*
X49776305Y-58266831D01*
X50261875Y-58266831D01*
X50285688Y-58343031D01*
X50723838Y-59232031D01*
X50777019Y-59288388D01*
X50852425Y-59309819D01*
X50868300Y-59309819D01*
X50942119Y-59288388D01*
X50995300Y-59232031D01*
X51026596Y-59168531D01*
X51544575Y-59168531D01*
X51554100Y-59251081D01*
X51596169Y-59295134D01*
X51684275Y-59309819D01*
X51766032Y-59299103D01*
X51808100Y-59266956D01*
X51823182Y-59224888D01*
X51825563Y-59170119D01*
X51825563Y-58990731D01*
X52025588Y-58990731D01*
X52074800Y-58987556D01*
X52136536Y-59133783D01*
X52177811Y-59229562D01*
X52198625Y-59274894D01*
X52227994Y-59305850D01*
X52278794Y-59320931D01*
X52360550Y-59298706D01*
X52434369Y-59252669D01*
X52458975Y-59197106D01*
X52451190Y-59170119D01*
X53233675Y-59170119D01*
X53243200Y-59251081D01*
X53285269Y-59296325D01*
X53373375Y-59311406D01*
X53455132Y-59300691D01*
X53497200Y-59268544D01*
X53512282Y-59227269D01*
X53514663Y-59171706D01*
X53514663Y-59056613D01*
X53617850Y-59056613D01*
X53659125Y-59147894D01*
X53673413Y-59165356D01*
X53719450Y-59213775D01*
X53790888Y-59263781D01*
X53898838Y-59309025D01*
X53967497Y-59322717D01*
X54040125Y-59327281D01*
X54135552Y-59317933D01*
X54227098Y-59289887D01*
X54314763Y-59243144D01*
X54375088Y-59191352D01*
X54390692Y-59168531D01*
X54567175Y-59168531D01*
X54576700Y-59251081D01*
X54618769Y-59295134D01*
X54706875Y-59309819D01*
X54788632Y-59299103D01*
X54830700Y-59266956D01*
X54845782Y-59224888D01*
X54848163Y-59170119D01*
X54848163Y-58990731D01*
X55046600Y-58990731D01*
X55139734Y-58979442D01*
X55230750Y-58945576D01*
X55319650Y-58889131D01*
X55378785Y-58831386D01*
X55426013Y-58756575D01*
X55456969Y-58668270D01*
X55467288Y-58570044D01*
X55456969Y-58471619D01*
X55426013Y-58382719D01*
X55378785Y-58307312D01*
X55319650Y-58249369D01*
X55230927Y-58192924D01*
X55140439Y-58159058D01*
X55048188Y-58147769D01*
X54708463Y-58147769D01*
X54626707Y-58158484D01*
X54584638Y-58190631D01*
X54569557Y-58232700D01*
X54567175Y-58287469D01*
X54567175Y-59168531D01*
X54390692Y-59168531D01*
X54422713Y-59121700D01*
X54453669Y-59036967D01*
X54463988Y-58939931D01*
X54453868Y-58844880D01*
X54423507Y-58766100D01*
X54378064Y-58705973D01*
X54322700Y-58666881D01*
X54259597Y-58640489D01*
X54190938Y-58618462D01*
X54122278Y-58601198D01*
X54059175Y-58589094D01*
X53958369Y-58552581D01*
X53917888Y-58481937D01*
X53952019Y-58413675D01*
X54037744Y-58389069D01*
X54122675Y-58409706D01*
X54147282Y-58430344D01*
X54165538Y-58446219D01*
X54248088Y-58477969D01*
X54304444Y-58458125D01*
X54359213Y-58398594D01*
X54397313Y-58311281D01*
X54348100Y-58233494D01*
X54308413Y-58203331D01*
X54199669Y-58153325D01*
X54116921Y-58134870D01*
X54025838Y-58128719D01*
X53914625Y-58140272D01*
X53820168Y-58174933D01*
X53742469Y-58232700D01*
X53684702Y-58305990D01*
X53650041Y-58387217D01*
X53638488Y-58476381D01*
X53648608Y-58570639D01*
X53678969Y-58650212D01*
X53724411Y-58712720D01*
X53779775Y-58755781D01*
X53842482Y-58786936D01*
X53909950Y-58813725D01*
X53977419Y-58834958D01*
X54040125Y-58849444D01*
X54140932Y-58885163D01*
X54181413Y-58946281D01*
X54165009Y-59013309D01*
X54115796Y-59053526D01*
X54033775Y-59066931D01*
X53957575Y-59042325D01*
X53894075Y-58990731D01*
X53823432Y-58931200D01*
X53770250Y-58911356D01*
X53686113Y-58949456D01*
X53634916Y-59009583D01*
X53617850Y-59056613D01*
X53514663Y-59056613D01*
X53514663Y-58289056D01*
X53506725Y-58206506D01*
X53463466Y-58162453D01*
X53374963Y-58147769D01*
X53293207Y-58158484D01*
X53251138Y-58190631D01*
X53236057Y-58232700D01*
X53233675Y-58287469D01*
X53233675Y-59170119D01*
X52451190Y-59170119D01*
X52435163Y-59114556D01*
X52390713Y-59013485D01*
X52369169Y-58963744D01*
X52522475Y-58963744D01*
X52530413Y-59036769D01*
X52565735Y-59077250D01*
X52636775Y-59090744D01*
X53014600Y-59090744D01*
X53093975Y-59076456D01*
X53121757Y-59037563D01*
X53130488Y-58965331D01*
X53120963Y-58892306D01*
X53086832Y-58853016D01*
X53016188Y-58839919D01*
X52638363Y-58839919D01*
X52562163Y-58854206D01*
X52532000Y-58892306D01*
X52522475Y-58963744D01*
X52369169Y-58963744D01*
X52354730Y-58930406D01*
X52327213Y-58865319D01*
X52393359Y-58781005D01*
X52433046Y-58682580D01*
X52446275Y-58570044D01*
X52435957Y-58471619D01*
X52405000Y-58382719D01*
X52358169Y-58307312D01*
X52300225Y-58249369D01*
X52211502Y-58192924D01*
X52121014Y-58159058D01*
X52028763Y-58147769D01*
X51685863Y-58147769D01*
X51604107Y-58158484D01*
X51562038Y-58190631D01*
X51546957Y-58232700D01*
X51544575Y-58287469D01*
X51544575Y-59168531D01*
X51026596Y-59168531D01*
X51433450Y-58343031D01*
X51457263Y-58266831D01*
X51433847Y-58213650D01*
X51363600Y-58165231D01*
X51269938Y-58138244D01*
X51200088Y-58181106D01*
X51177863Y-58228731D01*
X50860363Y-58924056D01*
X50843099Y-58887345D01*
X50804007Y-58802613D01*
X50752413Y-58690495D01*
X50697644Y-58571631D01*
X50643074Y-58452767D01*
X50592075Y-58340650D01*
X50552189Y-58253337D01*
X50530957Y-58208887D01*
X50504763Y-58166819D01*
X50477775Y-58144594D01*
X50435707Y-58138244D01*
X50355538Y-58165231D01*
X50285291Y-58213650D01*
X50261875Y-58266831D01*
X49776305Y-58266831D01*
X49758638Y-58230319D01*
X49706250Y-58168406D01*
X49631638Y-58147769D01*
X49556232Y-58169994D01*
X49503050Y-58228731D01*
X49074425Y-59116144D01*
X49047438Y-59197106D01*
X48534808Y-59197106D01*
X48534808Y-57616089D01*
G37*
G36*
X52120838Y-58464475D02*
G01*
X52166875Y-58570044D01*
X52120838Y-58674819D01*
X52028763Y-58709744D01*
X51825563Y-58709744D01*
X51825563Y-58428756D01*
X52025588Y-58428756D01*
X52120838Y-58464475D01*
G37*
D11*
%TO.C,D5*%
X126630000Y-68570000D02*
X126300000Y-68570000D01*
X126300000Y-66995000D02*
X130240000Y-66995000D01*
X129910000Y-68570000D02*
X130240000Y-68570000D01*
X130240000Y-59430000D02*
X129910000Y-59430000D01*
X126300000Y-67235000D02*
X130240000Y-67235000D01*
X126300000Y-67115000D02*
X130240000Y-67115000D01*
X126300000Y-68570000D02*
X126300000Y-59430000D01*
X130240000Y-68570000D02*
X130240000Y-59430000D01*
X126300000Y-59430000D02*
X126630000Y-59430000D01*
%TO.C,kibuzzard-6160B38A*%
G36*
X135201851Y-45249233D02*
G01*
X135309711Y-45265232D01*
X135415483Y-45291727D01*
X135518149Y-45328461D01*
X135616720Y-45375082D01*
X135710247Y-45431139D01*
X135797828Y-45496094D01*
X135878622Y-45569321D01*
X135951848Y-45650114D01*
X136016803Y-45737696D01*
X136072861Y-45831223D01*
X136119482Y-45929794D01*
X136156216Y-46032460D01*
X136182711Y-46138232D01*
X136198710Y-46246091D01*
X136204060Y-46355000D01*
X136198710Y-46463909D01*
X136182711Y-46571768D01*
X136156216Y-46677540D01*
X136119482Y-46780206D01*
X136072861Y-46878777D01*
X136016803Y-46972304D01*
X135951848Y-47059886D01*
X135878622Y-47140679D01*
X135797828Y-47213906D01*
X135710247Y-47278861D01*
X135616720Y-47334918D01*
X135518149Y-47381539D01*
X135415483Y-47418273D01*
X135309711Y-47444768D01*
X135201851Y-47460767D01*
X135092943Y-47466118D01*
X131607057Y-47466118D01*
X131498149Y-47460767D01*
X131390289Y-47444768D01*
X131284517Y-47418273D01*
X131181851Y-47381539D01*
X131083280Y-47334918D01*
X130989753Y-47278861D01*
X130902172Y-47213906D01*
X130821378Y-47140679D01*
X130748152Y-47059886D01*
X130683197Y-46972304D01*
X130627139Y-46878777D01*
X130580518Y-46780206D01*
X130543784Y-46677540D01*
X130517289Y-46571768D01*
X130501290Y-46463909D01*
X130496330Y-46362938D01*
X132310188Y-46362938D01*
X132320754Y-46479420D01*
X132352455Y-46587569D01*
X132405289Y-46687383D01*
X132479256Y-46778863D01*
X132568305Y-46855261D01*
X132666383Y-46909831D01*
X132773489Y-46942573D01*
X132889625Y-46953488D01*
X133005513Y-46942425D01*
X133111875Y-46909236D01*
X133208713Y-46853921D01*
X133277231Y-46793150D01*
X133564313Y-46793150D01*
X133566694Y-46848713D01*
X133581775Y-46891575D01*
X133623050Y-46923722D01*
X133702425Y-46934438D01*
X133784181Y-46923722D01*
X133826250Y-46891575D01*
X133841331Y-46850300D01*
X133843713Y-46794738D01*
X133843713Y-46272450D01*
X133888074Y-46330306D01*
X133946018Y-46406506D01*
X134017544Y-46501050D01*
X134102651Y-46613939D01*
X134201341Y-46745172D01*
X134313613Y-46894750D01*
X134353300Y-46924913D01*
X134439025Y-46934438D01*
X134520781Y-46923722D01*
X134562850Y-46891575D01*
X134577931Y-46850300D01*
X134580313Y-46794738D01*
X134580313Y-45913675D01*
X134570788Y-45832712D01*
X134550944Y-45799375D01*
X134509669Y-45780325D01*
X134436644Y-45772387D01*
X134361238Y-45781912D01*
X134315994Y-45819219D01*
X134300913Y-45907325D01*
X134300913Y-46443900D01*
X134257168Y-46386618D01*
X134201076Y-46312137D01*
X134132638Y-46220459D01*
X134051851Y-46111583D01*
X133958718Y-45985509D01*
X133853238Y-45842237D01*
X133816725Y-45800962D01*
X133777831Y-45781119D01*
X133702425Y-45772387D01*
X133624638Y-45781912D01*
X133579394Y-45819219D01*
X133564313Y-45907325D01*
X133564313Y-46793150D01*
X133277231Y-46793150D01*
X133296025Y-46776481D01*
X133368256Y-46683315D01*
X133419850Y-46580822D01*
X133450806Y-46469002D01*
X133461125Y-46347856D01*
X133450310Y-46227157D01*
X133417866Y-46116677D01*
X133363791Y-46016416D01*
X133288088Y-45926375D01*
X133197699Y-45852060D01*
X133099572Y-45798978D01*
X132993705Y-45767129D01*
X132880100Y-45756512D01*
X132772150Y-45767625D01*
X132667375Y-45800962D01*
X132570141Y-45853747D01*
X132484813Y-45923200D01*
X132413375Y-46010314D01*
X132357813Y-46116081D01*
X132322094Y-46235342D01*
X132310188Y-46362938D01*
X130496330Y-46362938D01*
X130495940Y-46355000D01*
X130501290Y-46246091D01*
X130517289Y-46138232D01*
X130543784Y-46032460D01*
X130580518Y-45929794D01*
X130627139Y-45831223D01*
X130683197Y-45737696D01*
X130748152Y-45650114D01*
X130821378Y-45569321D01*
X130902172Y-45496094D01*
X130989753Y-45431139D01*
X131083280Y-45375082D01*
X131181851Y-45328461D01*
X131284517Y-45291727D01*
X131390289Y-45265232D01*
X131498149Y-45249233D01*
X131607057Y-45243882D01*
X135092943Y-45243882D01*
X135201851Y-45249233D01*
G37*
G36*
X132992217Y-46059328D02*
G01*
X133088856Y-46124812D01*
X133139568Y-46189371D01*
X133169995Y-46266629D01*
X133180138Y-46356588D01*
X133170083Y-46446369D01*
X133139921Y-46523099D01*
X133089650Y-46586775D01*
X132993606Y-46651069D01*
X132886450Y-46672500D01*
X132779095Y-46650473D01*
X132682456Y-46584394D01*
X132631744Y-46519747D01*
X132601317Y-46443283D01*
X132591175Y-46355000D01*
X132601229Y-46266717D01*
X132631392Y-46190253D01*
X132681663Y-46125606D01*
X132777706Y-46059527D01*
X132884863Y-46037500D01*
X132992217Y-46059328D01*
G37*
%TO.C,J1*%
X60243000Y-60013000D02*
X60243000Y-57413000D01*
X57643000Y-58743000D02*
X57643000Y-57413000D01*
X57643000Y-65153000D02*
X62843000Y-65153000D01*
X57643000Y-57413000D02*
X58973000Y-57413000D01*
X57643000Y-60013000D02*
X57643000Y-65153000D01*
X57643000Y-60013000D02*
X60243000Y-60013000D01*
X62843000Y-57413000D02*
X62843000Y-65153000D01*
X60243000Y-57413000D02*
X62843000Y-57413000D01*
%TO.C,U1*%
X76570000Y-89890000D02*
X112250000Y-89890000D01*
X76570000Y-84590000D02*
X76570000Y-86240000D01*
X112250000Y-84590000D02*
X76570000Y-84590000D01*
X76570000Y-88240000D02*
X76570000Y-89890000D01*
X112250000Y-89890000D02*
X112250000Y-84590000D01*
X76570000Y-88240000D02*
G75*
G03*
X76570000Y-86240000I0J1000000D01*
G01*
%TO.C,C3*%
X108200000Y-59254114D02*
X109450000Y-59254114D01*
X111530000Y-58654114D02*
X112354000Y-58654114D01*
X107917000Y-60255114D02*
X113063000Y-60255114D01*
X111530000Y-58214114D02*
X111809000Y-58214114D01*
X107912000Y-60335114D02*
X113068000Y-60335114D01*
X109047000Y-58294114D02*
X109450000Y-58294114D01*
X108791000Y-58494114D02*
X109450000Y-58494114D01*
X111530000Y-58694114D02*
X112391000Y-58694114D01*
X107962000Y-59935114D02*
X109450000Y-59935114D01*
X109239000Y-58174114D02*
X109450000Y-58174114D01*
X108395000Y-58934114D02*
X109450000Y-58934114D01*
X111530000Y-58294114D02*
X111933000Y-58294114D01*
X111530000Y-58334114D02*
X111990000Y-58334114D01*
X108341000Y-59014114D02*
X109450000Y-59014114D01*
X111530000Y-59334114D02*
X112819000Y-59334114D01*
X108266000Y-59134114D02*
X109450000Y-59134114D01*
X108010000Y-59734114D02*
X109450000Y-59734114D01*
X111530000Y-59895114D02*
X113010000Y-59895114D01*
X109575000Y-58014114D02*
X111405000Y-58014114D01*
X107921000Y-60215114D02*
X109450000Y-60215114D01*
X109479000Y-58054114D02*
X111501000Y-58054114D01*
X111530000Y-60095114D02*
X113046000Y-60095114D01*
X109015000Y-63259889D02*
X109015000Y-62759889D01*
X107910000Y-60455114D02*
X113070000Y-60455114D01*
X111530000Y-59174114D02*
X112737000Y-59174114D01*
X111530000Y-59815114D02*
X112991000Y-59815114D01*
X111530000Y-59574114D02*
X112918000Y-59574114D01*
X108022000Y-59694114D02*
X109450000Y-59694114D01*
X111530000Y-59654114D02*
X112945000Y-59654114D01*
X108486000Y-58814114D02*
X109450000Y-58814114D01*
X107925000Y-60175114D02*
X109450000Y-60175114D01*
X108747000Y-58534114D02*
X109450000Y-58534114D01*
X111530000Y-59855114D02*
X113001000Y-59855114D01*
X111530000Y-58374114D02*
X112044000Y-58374114D01*
X111530000Y-58414114D02*
X112095000Y-58414114D01*
X109171000Y-58214114D02*
X109450000Y-58214114D01*
X107999000Y-59775114D02*
X109450000Y-59775114D01*
X111530000Y-58894114D02*
X112555000Y-58894114D01*
X111530000Y-58174114D02*
X111741000Y-58174114D01*
X107914000Y-60295114D02*
X113066000Y-60295114D01*
X111530000Y-59094114D02*
X112690000Y-59094114D01*
X111530000Y-60135114D02*
X113051000Y-60135114D01*
X111530000Y-58934114D02*
X112585000Y-58934114D01*
X111530000Y-59494114D02*
X112888000Y-59494114D01*
X107929000Y-60135114D02*
X109450000Y-60135114D01*
X109813000Y-57934114D02*
X111167000Y-57934114D01*
X108108000Y-59454114D02*
X109450000Y-59454114D01*
X107947000Y-60015114D02*
X109450000Y-60015114D01*
X111530000Y-59935114D02*
X113018000Y-59935114D01*
X111530000Y-58454114D02*
X112143000Y-58454114D01*
X108222000Y-59214114D02*
X109450000Y-59214114D01*
X111530000Y-59374114D02*
X112838000Y-59374114D01*
X111530000Y-58614114D02*
X112316000Y-58614114D01*
X107954000Y-59975114D02*
X109450000Y-59975114D01*
X108553000Y-58734114D02*
X109450000Y-58734114D01*
X108142000Y-59374114D02*
X109450000Y-59374114D01*
X107970000Y-59895114D02*
X109450000Y-59895114D01*
X108048000Y-59614114D02*
X109450000Y-59614114D01*
X111530000Y-58854114D02*
X112525000Y-58854114D01*
X111530000Y-59775114D02*
X112981000Y-59775114D01*
X111530000Y-59054114D02*
X112665000Y-59054114D01*
X107934000Y-60095114D02*
X109450000Y-60095114D01*
X111530000Y-60215114D02*
X113059000Y-60215114D01*
X109685000Y-57974114D02*
X111295000Y-57974114D01*
X108062000Y-59574114D02*
X109450000Y-59574114D01*
X111530000Y-59975114D02*
X113026000Y-59975114D01*
X109972000Y-57894114D02*
X111008000Y-57894114D01*
X108125000Y-59414114D02*
X109450000Y-59414114D01*
X111530000Y-60055114D02*
X113040000Y-60055114D01*
X108076000Y-59534114D02*
X109450000Y-59534114D01*
X111530000Y-59294114D02*
X112800000Y-59294114D01*
X111530000Y-58814114D02*
X112494000Y-58814114D01*
X111530000Y-59414114D02*
X112855000Y-59414114D01*
X111530000Y-58574114D02*
X112275000Y-58574114D01*
X111530000Y-59214114D02*
X112758000Y-59214114D01*
X111530000Y-58734114D02*
X112427000Y-58734114D01*
X107940000Y-60055114D02*
X109450000Y-60055114D01*
X108589000Y-58694114D02*
X109450000Y-58694114D01*
X111530000Y-58494114D02*
X112189000Y-58494114D01*
X108368000Y-58974114D02*
X109450000Y-58974114D01*
X111530000Y-58254114D02*
X111873000Y-58254114D01*
X108455000Y-58854114D02*
X109450000Y-58854114D01*
X108180000Y-59294114D02*
X109450000Y-59294114D01*
X108092000Y-59494114D02*
X109450000Y-59494114D01*
X111530000Y-59694114D02*
X112958000Y-59694114D01*
X107910000Y-60415114D02*
X113070000Y-60415114D01*
X111530000Y-58974114D02*
X112612000Y-58974114D01*
X108936000Y-58374114D02*
X109450000Y-58374114D01*
X111530000Y-58774114D02*
X112461000Y-58774114D01*
X111530000Y-59534114D02*
X112904000Y-59534114D01*
X108519000Y-58774114D02*
X109450000Y-58774114D01*
X109392000Y-58094114D02*
X111588000Y-58094114D01*
X111530000Y-60175114D02*
X113055000Y-60175114D01*
X109312000Y-58134114D02*
X111668000Y-58134114D01*
X111530000Y-59134114D02*
X112714000Y-59134114D01*
X108035000Y-59654114D02*
X109450000Y-59654114D01*
X111530000Y-59734114D02*
X112970000Y-59734114D01*
X111530000Y-60015114D02*
X113033000Y-60015114D01*
X108664000Y-58614114D02*
X109450000Y-58614114D01*
X108290000Y-59094114D02*
X109450000Y-59094114D01*
X108161000Y-59334114D02*
X109450000Y-59334114D01*
X108315000Y-59054114D02*
X109450000Y-59054114D01*
X111530000Y-59454114D02*
X112872000Y-59454114D01*
X107911000Y-60375114D02*
X113069000Y-60375114D01*
X111530000Y-59614114D02*
X112932000Y-59614114D01*
X108990000Y-58334114D02*
X109450000Y-58334114D01*
X109107000Y-58254114D02*
X109450000Y-58254114D01*
X108705000Y-58574114D02*
X109450000Y-58574114D01*
X108626000Y-58654114D02*
X109450000Y-58654114D01*
X111530000Y-59254114D02*
X112780000Y-59254114D01*
X108425000Y-58894114D02*
X109450000Y-58894114D01*
X108885000Y-58414114D02*
X109450000Y-58414114D01*
X110206000Y-57854114D02*
X110774000Y-57854114D01*
X108837000Y-58454114D02*
X109450000Y-58454114D01*
X111530000Y-59014114D02*
X112639000Y-59014114D01*
X108765000Y-63009889D02*
X109265000Y-63009889D01*
X108243000Y-59174114D02*
X109450000Y-59174114D01*
X107989000Y-59815114D02*
X109450000Y-59815114D01*
X111530000Y-58534114D02*
X112233000Y-58534114D01*
X107979000Y-59855114D02*
X109450000Y-59855114D01*
X113110000Y-60455114D02*
G75*
G03*
X113110000Y-60455114I-2620000J0D01*
G01*
%TO.C,LS1*%
X59500000Y-47900000D02*
G75*
G03*
X59500000Y-47900000I-6100000J0D01*
G01*
%TO.C,D2*%
X121756000Y-111975000D02*
X117004000Y-111975000D01*
X117004184Y-111975000D02*
G75*
G03*
X119375259Y-122624998I2375816J-5060000D01*
G01*
X119384741Y-122624998D02*
G75*
G03*
X121755816Y-111975000I-4741J5589998D01*
G01*
X124380000Y-117035000D02*
G75*
G03*
X124380000Y-117035000I-5000000J0D01*
G01*
%TO.C,C8*%
X91780000Y-95470000D02*
X97020000Y-95470000D01*
X91780000Y-92730000D02*
X91780000Y-95470000D01*
X97020000Y-92730000D02*
X97020000Y-95470000D01*
X91780000Y-92730000D02*
X97020000Y-92730000D01*
%TO.C,D4*%
X121756000Y-96535000D02*
X117004000Y-96535000D01*
X119384741Y-107184998D02*
G75*
G03*
X121755816Y-96535000I-4741J5589998D01*
G01*
X117004184Y-96535000D02*
G75*
G03*
X119375259Y-107184998I2375816J-5060000D01*
G01*
X124380000Y-101595000D02*
G75*
G03*
X124380000Y-101595000I-5000000J0D01*
G01*
%TO.C,SW7*%
X140870000Y-105030000D02*
X140870000Y-107750000D01*
X128570000Y-107750000D02*
X128570000Y-105030000D01*
X140870000Y-107750000D02*
X128570000Y-107750000D01*
X140870000Y-100030000D02*
X140870000Y-103170000D01*
X128570000Y-95450000D02*
X140870000Y-95450000D01*
X140870000Y-95450000D02*
X140870000Y-98170000D01*
X128570000Y-98170000D02*
X128570000Y-95450000D01*
X128570000Y-103170000D02*
X128570000Y-100030000D01*
X139199050Y-101560000D02*
G75*
G03*
X139199050Y-101560000I-4579050J0D01*
G01*
%TO.C,R2*%
X69310000Y-85498000D02*
X62770000Y-85498000D01*
X69310000Y-88238000D02*
X69310000Y-85498000D01*
X62770000Y-88238000D02*
X69310000Y-88238000D01*
X62000000Y-86868000D02*
X62770000Y-86868000D01*
X62770000Y-85498000D02*
X62770000Y-88238000D01*
X70080000Y-86868000D02*
X69310000Y-86868000D01*
%TO.C,SW2*%
X48360000Y-110890000D02*
X60660000Y-110890000D01*
X60660000Y-123190000D02*
X48360000Y-123190000D01*
X48360000Y-118610000D02*
X48360000Y-115470000D01*
X60660000Y-115470000D02*
X60660000Y-118610000D01*
X60660000Y-120470000D02*
X60660000Y-123190000D01*
X60660000Y-110890000D02*
X60660000Y-113610000D01*
X48360000Y-123190000D02*
X48360000Y-120470000D01*
X48360000Y-113610000D02*
X48360000Y-110890000D01*
X59189050Y-117080000D02*
G75*
G03*
X59189050Y-117080000I-4579050J0D01*
G01*
%TO.C,C5*%
X97108000Y-81634000D02*
X91868000Y-81634000D01*
X97108000Y-78894000D02*
X91868000Y-78894000D01*
X91868000Y-81634000D02*
X91868000Y-78894000D01*
X97108000Y-81634000D02*
X97108000Y-78894000D01*
%TO.C,kibuzzard-61609E4D*%
G36*
X126463425Y-42269569D02*
G01*
X126509462Y-42375137D01*
X126463425Y-42479912D01*
X126369762Y-42514837D01*
X126169737Y-42514837D01*
X126169737Y-42233850D01*
X126368175Y-42233850D01*
X126463425Y-42269569D01*
G37*
G36*
X131272166Y-41445552D02*
G01*
X131379410Y-41461460D01*
X131484577Y-41487803D01*
X131586656Y-41524328D01*
X131684664Y-41570682D01*
X131777656Y-41626419D01*
X131864737Y-41691003D01*
X131945069Y-41763811D01*
X132017877Y-41844143D01*
X132082461Y-41931224D01*
X132138198Y-42024216D01*
X132184552Y-42122224D01*
X132221077Y-42224303D01*
X132247420Y-42329471D01*
X132263328Y-42436714D01*
X132268648Y-42545000D01*
X132263328Y-42653286D01*
X132247420Y-42760529D01*
X132221077Y-42865697D01*
X132184552Y-42967776D01*
X132138198Y-43065784D01*
X132082461Y-43158776D01*
X132017877Y-43245857D01*
X131945069Y-43326189D01*
X131864737Y-43398997D01*
X131777656Y-43463581D01*
X131684664Y-43519318D01*
X131586656Y-43565672D01*
X131484577Y-43602197D01*
X131379410Y-43628540D01*
X131272166Y-43644448D01*
X131163880Y-43649768D01*
X125376120Y-43649768D01*
X125267834Y-43644448D01*
X125160590Y-43628540D01*
X125055423Y-43602197D01*
X124953343Y-43565672D01*
X124855336Y-43519318D01*
X124762344Y-43463581D01*
X124675263Y-43398997D01*
X124594931Y-43326189D01*
X124522123Y-43245857D01*
X124457539Y-43158776D01*
X124401802Y-43065784D01*
X124358214Y-42973625D01*
X125888750Y-42973625D01*
X125898275Y-43056175D01*
X125940344Y-43100228D01*
X126028450Y-43114913D01*
X126110206Y-43104197D01*
X126152275Y-43072050D01*
X126167356Y-43029981D01*
X126169737Y-42975213D01*
X126169737Y-42795825D01*
X126368175Y-42795825D01*
X126461308Y-42784536D01*
X126552325Y-42750669D01*
X126633723Y-42698988D01*
X126868237Y-42698988D01*
X126885105Y-42819439D01*
X126935706Y-42926794D01*
X127010914Y-43015297D01*
X127101600Y-43079194D01*
X127201612Y-43117889D01*
X127304800Y-43130788D01*
X127407789Y-43118683D01*
X127507206Y-43082369D01*
X127597495Y-43020456D01*
X127673100Y-42931556D01*
X127724297Y-42821820D01*
X127741362Y-42697400D01*
X127726722Y-42577897D01*
X127682801Y-42473386D01*
X127615441Y-42391012D01*
X127804862Y-42391012D01*
X127820737Y-42452925D01*
X128060450Y-43037125D01*
X128104900Y-43093481D01*
X128187450Y-43121263D01*
X128274762Y-43083163D01*
X128300162Y-43049825D01*
X128313656Y-43023631D01*
X128324769Y-42995056D01*
X128364456Y-42887106D01*
X128391642Y-42812692D01*
X128411287Y-42762488D01*
X128457678Y-42885960D01*
X128488899Y-42968510D01*
X128504950Y-43010138D01*
X128517650Y-43037125D01*
X128562894Y-43093481D01*
X128633537Y-43121263D01*
X128693862Y-43110150D01*
X128741487Y-43071256D01*
X128773237Y-43011725D01*
X128900296Y-42702163D01*
X129079625Y-42702163D01*
X129090737Y-42804644D01*
X129124075Y-42900424D01*
X129179637Y-42989500D01*
X129240558Y-43049627D01*
X129321719Y-43096656D01*
X129419548Y-43127017D01*
X129530475Y-43137138D01*
X129678410Y-43128307D01*
X129784078Y-43101816D01*
X129847479Y-43057663D01*
X129859928Y-43021250D01*
X130013075Y-43021250D01*
X130041650Y-43089513D01*
X130151187Y-43116500D01*
X130232150Y-43106181D01*
X130275012Y-43075225D01*
X130290094Y-43033156D01*
X130292475Y-42978388D01*
X130292475Y-42645013D01*
X130329781Y-42571988D01*
X130409950Y-42541825D01*
X130479006Y-42554525D01*
X130533775Y-42567225D01*
X130621087Y-42506900D01*
X130651250Y-42395775D01*
X130631406Y-42321956D01*
X130581400Y-42289412D01*
X130525837Y-42275919D01*
X130463131Y-42271950D01*
X130376612Y-42298937D01*
X130312319Y-42341800D01*
X130289300Y-42368787D01*
X130271837Y-42316400D01*
X130230166Y-42289016D01*
X130152775Y-42279887D01*
X130071019Y-42290603D01*
X130028950Y-42322750D01*
X130015456Y-42363231D01*
X130013075Y-42418000D01*
X130013075Y-43021250D01*
X129859928Y-43021250D01*
X129868612Y-42995850D01*
X129847975Y-42922825D01*
X129760662Y-42851388D01*
X129697162Y-42868850D01*
X129679700Y-42875200D01*
X129617391Y-42889488D01*
X129535237Y-42894250D01*
X129430462Y-42864088D01*
X129378075Y-42789475D01*
X129754312Y-42789475D01*
X129861469Y-42742644D01*
X129897783Y-42683113D01*
X129909887Y-42598181D01*
X129896394Y-42504320D01*
X129855912Y-42418000D01*
X129796977Y-42349936D01*
X129723356Y-42301319D01*
X129635052Y-42272148D01*
X129532062Y-42262425D01*
X129410090Y-42275742D01*
X129302404Y-42315694D01*
X129209006Y-42382281D01*
X129137128Y-42471093D01*
X129094001Y-42577720D01*
X129079625Y-42702163D01*
X128900296Y-42702163D01*
X128947862Y-42586275D01*
X128990725Y-42482294D01*
X129016125Y-42395775D01*
X128990725Y-42335847D01*
X128914525Y-42286237D01*
X128851025Y-42270362D01*
X128784350Y-42295762D01*
X128736725Y-42371962D01*
X128639887Y-42635488D01*
X128623131Y-42593154D01*
X128591910Y-42508487D01*
X128546225Y-42381487D01*
X128533525Y-42354500D01*
X128486694Y-42303700D01*
X128404937Y-42278300D01*
X128311275Y-42324337D01*
X128276350Y-42379900D01*
X128182687Y-42637075D01*
X128132064Y-42499492D01*
X128094493Y-42400008D01*
X128069975Y-42338625D01*
X128057275Y-42310844D01*
X128029494Y-42283856D01*
X127977900Y-42270362D01*
X127895350Y-42291000D01*
X127827484Y-42334259D01*
X127804862Y-42391012D01*
X127615441Y-42391012D01*
X127609600Y-42383869D01*
X127517349Y-42315518D01*
X127416278Y-42274508D01*
X127306387Y-42260837D01*
X127196321Y-42274596D01*
X127094721Y-42315871D01*
X127001587Y-42384662D01*
X126927504Y-42474621D01*
X126883054Y-42579396D01*
X126868237Y-42698988D01*
X126633723Y-42698988D01*
X126641225Y-42694225D01*
X126700359Y-42636480D01*
X126747587Y-42561669D01*
X126778544Y-42473364D01*
X126788862Y-42375137D01*
X126778544Y-42276712D01*
X126747587Y-42187812D01*
X126700359Y-42112406D01*
X126641225Y-42054462D01*
X126552501Y-41998018D01*
X126462014Y-41964151D01*
X126369762Y-41952862D01*
X126030037Y-41952862D01*
X125948281Y-41963578D01*
X125906212Y-41995725D01*
X125891131Y-42037794D01*
X125888750Y-42092562D01*
X125888750Y-42973625D01*
X124358214Y-42973625D01*
X124355448Y-42967776D01*
X124318923Y-42865697D01*
X124292580Y-42760529D01*
X124276672Y-42653286D01*
X124271352Y-42545000D01*
X124276672Y-42436714D01*
X124292580Y-42329471D01*
X124318923Y-42224303D01*
X124355448Y-42122224D01*
X124401802Y-42024216D01*
X124457539Y-41931224D01*
X124522123Y-41844143D01*
X124594931Y-41763811D01*
X124675263Y-41691003D01*
X124762344Y-41626419D01*
X124855336Y-41570682D01*
X124953343Y-41524328D01*
X125055423Y-41487803D01*
X125160590Y-41461460D01*
X125267834Y-41445552D01*
X125376120Y-41440232D01*
X131163880Y-41440232D01*
X131272166Y-41445552D01*
G37*
G36*
X127411162Y-42578338D02*
G01*
X127448072Y-42626359D01*
X127460375Y-42694225D01*
X127447278Y-42762488D01*
X127407987Y-42811700D01*
X127303212Y-42851388D01*
X127200025Y-42812494D01*
X127161925Y-42764075D01*
X127149225Y-42696606D01*
X127161528Y-42628939D01*
X127198437Y-42579925D01*
X127304800Y-42540237D01*
X127411162Y-42578338D01*
G37*
G36*
X129607469Y-42535475D02*
G01*
X129635250Y-42594213D01*
X129574925Y-42645013D01*
X129374900Y-42645013D01*
X129425700Y-42555319D01*
X129528094Y-42513250D01*
X129607469Y-42535475D01*
G37*
%TO.C,SW5*%
X128570000Y-123190000D02*
X128570000Y-120470000D01*
X140870000Y-115470000D02*
X140870000Y-118610000D01*
X128570000Y-118610000D02*
X128570000Y-115470000D01*
X140870000Y-120470000D02*
X140870000Y-123190000D01*
X128570000Y-113610000D02*
X128570000Y-110890000D01*
X128570000Y-110890000D02*
X140870000Y-110890000D01*
X140870000Y-110890000D02*
X140870000Y-113610000D01*
X140870000Y-123190000D02*
X128570000Y-123190000D01*
X139199050Y-117000000D02*
G75*
G03*
X139199050Y-117000000I-4579050J0D01*
G01*
%TO.C,J2*%
X50402000Y-79810000D02*
X50402000Y-92570000D01*
X47742000Y-79810000D02*
X50402000Y-79810000D01*
X47742000Y-79810000D02*
X47742000Y-92570000D01*
X47742000Y-77210000D02*
X49072000Y-77210000D01*
X47742000Y-92570000D02*
X50402000Y-92570000D01*
X47742000Y-78540000D02*
X47742000Y-77210000D01*
%TO.C,C7*%
X53330000Y-92610000D02*
X53330000Y-89870000D01*
X58570000Y-92610000D02*
X53330000Y-92610000D01*
X58570000Y-89870000D02*
X53330000Y-89870000D01*
X58570000Y-92610000D02*
X58570000Y-89870000D01*
%TO.C,SW6*%
X48360000Y-103170000D02*
X48360000Y-100030000D01*
X60660000Y-95450000D02*
X60660000Y-98170000D01*
X48360000Y-107750000D02*
X48360000Y-105030000D01*
X48360000Y-98170000D02*
X48360000Y-95450000D01*
X60660000Y-105030000D02*
X60660000Y-107750000D01*
X60660000Y-107750000D02*
X48360000Y-107750000D01*
X60660000Y-100030000D02*
X60660000Y-103170000D01*
X48360000Y-95450000D02*
X60660000Y-95450000D01*
X59189050Y-101640000D02*
G75*
G03*
X59189050Y-101640000I-4579050J0D01*
G01*
%TO.C,U2*%
X99520000Y-59730000D02*
X99520000Y-49490000D01*
X83630000Y-59730000D02*
X99520000Y-59730000D01*
X99520000Y-57150000D02*
X102060000Y-57150000D01*
X99520000Y-54610000D02*
X102060000Y-54610000D01*
X99520000Y-52070000D02*
X102060000Y-52070000D01*
X83630000Y-49490000D02*
X99520000Y-49490000D01*
X83630000Y-59730000D02*
X83630000Y-49490000D01*
%TO.C,SW4*%
X100540000Y-115470000D02*
X100540000Y-118610000D01*
X100540000Y-123190000D02*
X88240000Y-123190000D01*
X88240000Y-123190000D02*
X88240000Y-120470000D01*
X88240000Y-118610000D02*
X88240000Y-115470000D01*
X100540000Y-120470000D02*
X100540000Y-123190000D01*
X100540000Y-110890000D02*
X100540000Y-113610000D01*
X88240000Y-110890000D02*
X100540000Y-110890000D01*
X88240000Y-113610000D02*
X88240000Y-110890000D01*
X98869050Y-117000000D02*
G75*
G03*
X98869050Y-117000000I-4579050J0D01*
G01*
%TO.C,R4*%
X62770000Y-81942000D02*
X62770000Y-84682000D01*
X69310000Y-81942000D02*
X62770000Y-81942000D01*
X70080000Y-83312000D02*
X69310000Y-83312000D01*
X62770000Y-84682000D02*
X69310000Y-84682000D01*
X62000000Y-83312000D02*
X62770000Y-83312000D01*
X69310000Y-84682000D02*
X69310000Y-81942000D01*
%TO.C,R5*%
X120750000Y-84106000D02*
X118010000Y-84106000D01*
X118010000Y-84106000D02*
X118010000Y-90646000D01*
X120750000Y-90646000D02*
X120750000Y-84106000D01*
X118010000Y-90646000D02*
X120750000Y-90646000D01*
X119380000Y-91416000D02*
X119380000Y-90646000D01*
X119380000Y-83336000D02*
X119380000Y-84106000D01*
%TO.C,D3*%
X72226000Y-96535000D02*
X67474000Y-96535000D01*
X69854741Y-107184998D02*
G75*
G03*
X72225816Y-96535000I-4741J5589998D01*
G01*
X67474184Y-96535000D02*
G75*
G03*
X69845259Y-107184998I2375816J-5060000D01*
G01*
X74850000Y-101595000D02*
G75*
G03*
X74850000Y-101595000I-5000000J0D01*
G01*
%TO.C,C2*%
X88730000Y-98730000D02*
X88730000Y-103970000D01*
X91470000Y-98730000D02*
X91470000Y-103970000D01*
X91470000Y-98730000D02*
X88730000Y-98730000D01*
X91470000Y-103970000D02*
X88730000Y-103970000D01*
%TO.C,C1*%
X105936000Y-98726001D02*
X105936000Y-103966001D01*
X108676000Y-98726001D02*
X108676000Y-103966001D01*
X108676000Y-98726001D02*
X105936000Y-98726001D01*
X108676000Y-103966001D02*
X105936000Y-103966001D01*
%TO.C,SW3*%
X129600000Y-44375001D02*
X126940000Y-44375001D01*
X129600000Y-52125001D02*
X126940000Y-52125001D01*
X129600000Y-49515001D02*
X129600000Y-52125001D01*
X126940000Y-52125001D02*
X126940000Y-44375001D01*
X129600000Y-49515001D02*
X129600000Y-44375001D01*
%TO.C,D1*%
X72226000Y-111975000D02*
X67474000Y-111975000D01*
X69854741Y-122624998D02*
G75*
G03*
X72225816Y-111975000I-4741J5589998D01*
G01*
X67474184Y-111975000D02*
G75*
G03*
X69845259Y-122624998I2375816J-5060000D01*
G01*
X74850000Y-117035000D02*
G75*
G03*
X74850000Y-117035000I-5000000J0D01*
G01*
%TO.C,kibuzzard-61609DF8*%
G36*
X50371243Y-70997145D02*
G01*
X50371243Y-75592693D01*
X49276000Y-76322855D01*
X48180757Y-75592693D01*
X48180757Y-74935600D01*
X48694975Y-74935600D01*
X48724344Y-75049900D01*
X48834675Y-75080063D01*
X49717325Y-75080063D01*
X49798288Y-75070538D01*
X49843531Y-75028469D01*
X49858613Y-74940363D01*
X49847897Y-74858607D01*
X49815750Y-74816538D01*
X49774475Y-74801457D01*
X49718913Y-74799075D01*
X49418875Y-74799075D01*
X49418875Y-74487925D01*
X49410938Y-74406963D01*
X49367678Y-74361719D01*
X49279175Y-74346638D01*
X49197022Y-74356957D01*
X49153762Y-74387913D01*
X49138681Y-74429982D01*
X49136300Y-74486338D01*
X49136300Y-74799075D01*
X48975962Y-74799075D01*
X48975962Y-74313300D01*
X48973581Y-74256944D01*
X48959294Y-74214875D01*
X48917225Y-74181538D01*
X48836262Y-74172013D01*
X48755300Y-74181538D01*
X48712437Y-74214082D01*
X48697356Y-74255357D01*
X48694975Y-74310125D01*
X48694975Y-74935600D01*
X48180757Y-74935600D01*
X48180757Y-73992625D01*
X48693387Y-73992625D01*
X48707675Y-74073588D01*
X48741806Y-74100575D01*
X48807687Y-74108513D01*
X48874362Y-74100575D01*
X48911669Y-74068825D01*
X48923575Y-73994213D01*
X48923575Y-73689413D01*
X49720500Y-73689413D01*
X49775269Y-73687032D01*
X49816544Y-73672744D01*
X49849088Y-73631469D01*
X49858613Y-73552888D01*
X49849088Y-73473513D01*
X49816544Y-73431444D01*
X49776062Y-73417157D01*
X49722088Y-73414775D01*
X48923575Y-73414775D01*
X48923575Y-73111563D01*
X48909287Y-73030600D01*
X48875156Y-73003613D01*
X48809275Y-72995675D01*
X48742600Y-73003613D01*
X48705294Y-73035363D01*
X48693387Y-73109975D01*
X48693387Y-73992625D01*
X48180757Y-73992625D01*
X48180757Y-72767075D01*
X48693387Y-72767075D01*
X48704103Y-72848832D01*
X48736250Y-72890900D01*
X48777525Y-72905982D01*
X48833087Y-72908363D01*
X49715738Y-72908363D01*
X49817338Y-72889313D01*
X49847103Y-72847244D01*
X49857025Y-72768663D01*
X49857025Y-72478150D01*
X49846210Y-72361221D01*
X49813766Y-72253321D01*
X49759691Y-72154449D01*
X49683988Y-72064607D01*
X49593153Y-71989944D01*
X49493686Y-71936614D01*
X49385587Y-71904616D01*
X49268856Y-71893950D01*
X49152572Y-71904864D01*
X49045812Y-71937607D01*
X48948578Y-71992177D01*
X48860869Y-72068575D01*
X48788290Y-72159361D01*
X48736448Y-72257091D01*
X48705343Y-72361767D01*
X48694975Y-72473388D01*
X48693387Y-72767075D01*
X48180757Y-72767075D01*
X48180757Y-71649475D01*
X48694975Y-71649475D01*
X48705691Y-71731232D01*
X48737837Y-71773300D01*
X48779906Y-71788382D01*
X48834675Y-71790763D01*
X49717325Y-71790763D01*
X49798288Y-71781238D01*
X49843531Y-71739169D01*
X49858613Y-71651063D01*
X49847897Y-71569307D01*
X49815750Y-71527238D01*
X49774475Y-71512157D01*
X49718913Y-71509775D01*
X48836262Y-71509775D01*
X48753712Y-71517713D01*
X48709659Y-71560972D01*
X48694975Y-71649475D01*
X48180757Y-71649475D01*
X48180757Y-70997145D01*
X50371243Y-70997145D01*
G37*
G36*
X49395261Y-72197957D02*
G01*
X49491106Y-72267013D01*
X49554805Y-72364644D01*
X49576038Y-72473388D01*
X49576038Y-72627375D01*
X48975962Y-72627375D01*
X48975962Y-72474975D01*
X48997592Y-72362064D01*
X49062481Y-72264632D01*
X49159517Y-72197361D01*
X49277588Y-72174938D01*
X49395261Y-72197957D01*
G37*
%TO.C,C6*%
X97690000Y-81634000D02*
X102930000Y-81634000D01*
X97690000Y-78894000D02*
X102930000Y-78894000D01*
X97690000Y-78894000D02*
X97690000Y-81634000D01*
X102930000Y-78894000D02*
X102930000Y-81634000D01*
%TO.C,R3*%
X115316000Y-83336000D02*
X115316000Y-84106000D01*
X113946000Y-84106000D02*
X113946000Y-90646000D01*
X116686000Y-84106000D02*
X113946000Y-84106000D01*
X116686000Y-90646000D02*
X116686000Y-84106000D01*
X115316000Y-91416000D02*
X115316000Y-90646000D01*
X113946000Y-90646000D02*
X116686000Y-90646000D01*
%TO.C,Y1*%
X102006000Y-98821000D02*
X95606000Y-98821000D01*
X102006000Y-103871000D02*
X95606000Y-103871000D01*
X102006000Y-103871000D02*
G75*
G03*
X102006000Y-98821000I0J2525000D01*
G01*
X95606000Y-98821000D02*
G75*
G03*
X95606000Y-103871000I0J-2525000D01*
G01*
%TO.C,kibuzzard-61609DB8*%
G36*
X54760013Y-73082175D02*
G01*
X54760013Y-73282200D01*
X54670319Y-73231400D01*
X54628250Y-73129006D01*
X54650475Y-73049631D01*
X54709213Y-73021850D01*
X54760013Y-73082175D01*
G37*
G36*
X54594912Y-73979113D02*
G01*
X54629837Y-74071188D01*
X54629837Y-74274388D01*
X54348850Y-74274388D01*
X54348850Y-74074363D01*
X54384569Y-73979113D01*
X54490137Y-73933075D01*
X54594912Y-73979113D01*
G37*
G36*
X54760013Y-71396250D02*
G01*
X54760013Y-71596275D01*
X54670319Y-71545475D01*
X54628250Y-71443081D01*
X54650475Y-71363706D01*
X54709213Y-71335925D01*
X54760013Y-71396250D01*
G37*
G36*
X53560552Y-69711709D02*
G01*
X53576460Y-69604465D01*
X53602803Y-69499298D01*
X53639328Y-69397219D01*
X53685682Y-69299211D01*
X53741419Y-69206219D01*
X53806003Y-69119138D01*
X53878811Y-69038806D01*
X53959143Y-68965998D01*
X54046224Y-68901414D01*
X54139216Y-68845677D01*
X54237224Y-68799323D01*
X54339303Y-68762798D01*
X54444471Y-68736455D01*
X54551714Y-68720547D01*
X54660000Y-68715227D01*
X54768286Y-68720547D01*
X54875529Y-68736455D01*
X54980697Y-68762798D01*
X55082776Y-68799323D01*
X55180784Y-68845677D01*
X55273776Y-68901414D01*
X55360857Y-68965998D01*
X55441189Y-69038806D01*
X55513997Y-69119138D01*
X55578581Y-69206219D01*
X55634318Y-69299211D01*
X55680672Y-69397219D01*
X55717197Y-69499298D01*
X55743540Y-69604465D01*
X55759448Y-69711709D01*
X55764768Y-69819995D01*
X55764768Y-75068005D01*
X55759448Y-75176291D01*
X55743540Y-75283535D01*
X55717197Y-75388702D01*
X55680672Y-75490782D01*
X55634318Y-75588789D01*
X55578581Y-75681781D01*
X55513997Y-75768862D01*
X55441189Y-75849194D01*
X55360857Y-75922002D01*
X55273776Y-75986586D01*
X55180784Y-76042323D01*
X55082776Y-76088677D01*
X54980697Y-76125202D01*
X54875529Y-76151545D01*
X54768286Y-76167453D01*
X54660000Y-76172773D01*
X54551714Y-76167453D01*
X54444471Y-76151545D01*
X54339303Y-76125202D01*
X54237224Y-76088677D01*
X54139216Y-76042323D01*
X54046224Y-75986586D01*
X53959143Y-75922002D01*
X53878811Y-75849194D01*
X53806003Y-75768862D01*
X53741419Y-75681781D01*
X53685682Y-75588789D01*
X53639328Y-75490782D01*
X53602803Y-75388702D01*
X53576460Y-75283535D01*
X53560552Y-75176291D01*
X53555232Y-75068005D01*
X53555232Y-74414088D01*
X54067862Y-74414088D01*
X54078578Y-74495844D01*
X54110725Y-74537913D01*
X54152794Y-74552994D01*
X54207562Y-74555375D01*
X55088625Y-74555375D01*
X55171175Y-74545850D01*
X55215228Y-74503781D01*
X55229913Y-74415675D01*
X55219197Y-74333919D01*
X55187050Y-74291850D01*
X55144981Y-74276769D01*
X55090213Y-74274388D01*
X54910825Y-74274388D01*
X54910825Y-74074363D01*
X54907650Y-74025150D01*
X55053876Y-73963414D01*
X55149656Y-73922139D01*
X55194988Y-73901325D01*
X55225944Y-73871956D01*
X55241025Y-73821156D01*
X55218800Y-73739400D01*
X55172763Y-73665581D01*
X55117200Y-73640975D01*
X55034650Y-73664788D01*
X54933579Y-73709238D01*
X54850500Y-73745221D01*
X54785413Y-73772738D01*
X54701099Y-73706592D01*
X54602674Y-73666904D01*
X54490137Y-73653675D01*
X54391712Y-73663994D01*
X54302812Y-73694950D01*
X54227406Y-73741781D01*
X54169462Y-73799725D01*
X54113018Y-73888449D01*
X54079151Y-73978936D01*
X54067862Y-74071188D01*
X54067862Y-74414088D01*
X53555232Y-74414088D01*
X53555232Y-73125038D01*
X54377425Y-73125038D01*
X54390742Y-73247010D01*
X54430694Y-73354696D01*
X54497281Y-73448094D01*
X54586093Y-73519972D01*
X54692720Y-73563099D01*
X54817163Y-73577475D01*
X54919644Y-73566363D01*
X55015424Y-73533025D01*
X55104500Y-73477463D01*
X55164627Y-73416542D01*
X55211656Y-73335381D01*
X55242017Y-73237552D01*
X55252138Y-73126625D01*
X55243307Y-72978690D01*
X55216816Y-72873022D01*
X55172663Y-72809621D01*
X55110850Y-72788488D01*
X55037825Y-72809125D01*
X54966388Y-72896438D01*
X54983850Y-72959938D01*
X54990200Y-72977400D01*
X55004488Y-73039709D01*
X55009250Y-73121863D01*
X54979088Y-73226638D01*
X54904475Y-73279025D01*
X54904475Y-72902788D01*
X54857644Y-72795631D01*
X54798113Y-72759317D01*
X54713181Y-72747213D01*
X54619320Y-72760706D01*
X54533000Y-72801188D01*
X54464936Y-72860123D01*
X54416319Y-72933744D01*
X54387148Y-73022048D01*
X54377425Y-73125038D01*
X53555232Y-73125038D01*
X53555232Y-72294775D01*
X54379012Y-72294775D01*
X54389045Y-72418791D01*
X54419144Y-72515247D01*
X54469309Y-72584145D01*
X54539540Y-72625483D01*
X54629837Y-72639263D01*
X54708220Y-72631722D01*
X54775094Y-72609100D01*
X54864788Y-72532900D01*
X54913603Y-72434078D01*
X54939400Y-72334463D01*
X54957656Y-72254691D01*
X54983850Y-72228100D01*
X55012425Y-72252309D01*
X55021950Y-72324938D01*
X54983056Y-72445588D01*
X54944163Y-72551156D01*
X54971150Y-72607513D01*
X55044572Y-72652756D01*
X55096563Y-72667838D01*
X55156888Y-72637675D01*
X55206276Y-72542160D01*
X55235910Y-72444000D01*
X55245788Y-72343194D01*
X55240319Y-72246797D01*
X55223915Y-72161866D01*
X55196575Y-72088400D01*
X55110056Y-72001881D01*
X55045961Y-71978664D01*
X54969563Y-71970925D01*
X54893958Y-71978664D01*
X54832244Y-72001881D01*
X54755250Y-72078875D01*
X54715563Y-72178888D01*
X54694925Y-72282075D01*
X54672303Y-72363038D01*
X54633012Y-72390025D01*
X54598087Y-72296363D01*
X54621900Y-72184444D01*
X54645712Y-72113800D01*
X54590150Y-72042363D01*
X54496487Y-72007438D01*
X54432987Y-72063000D01*
X54392506Y-72180475D01*
X54379012Y-72294775D01*
X53555232Y-72294775D01*
X53555232Y-71439113D01*
X54377425Y-71439113D01*
X54390742Y-71561085D01*
X54430694Y-71668771D01*
X54497281Y-71762169D01*
X54586093Y-71834047D01*
X54692720Y-71877174D01*
X54817163Y-71891550D01*
X54919644Y-71880438D01*
X55015424Y-71847100D01*
X55104500Y-71791538D01*
X55164627Y-71730617D01*
X55211656Y-71649456D01*
X55242017Y-71551627D01*
X55252138Y-71440700D01*
X55243307Y-71292765D01*
X55216816Y-71187097D01*
X55172663Y-71123696D01*
X55110850Y-71102563D01*
X55037825Y-71123200D01*
X54966388Y-71210513D01*
X54983850Y-71274013D01*
X54990200Y-71291475D01*
X55004488Y-71353784D01*
X55009250Y-71435938D01*
X54979088Y-71540713D01*
X54904475Y-71593100D01*
X54904475Y-71216863D01*
X54857644Y-71109706D01*
X54798113Y-71073392D01*
X54713181Y-71061288D01*
X54619320Y-71074781D01*
X54533000Y-71115263D01*
X54464936Y-71174198D01*
X54416319Y-71247819D01*
X54387148Y-71336123D01*
X54377425Y-71439113D01*
X53555232Y-71439113D01*
X53555232Y-70712038D01*
X54109137Y-70712038D01*
X54119059Y-70793397D01*
X54148825Y-70834275D01*
X54186925Y-70849356D01*
X54240900Y-70851738D01*
X54404412Y-70851738D01*
X54398062Y-70904125D01*
X54418700Y-70967625D01*
X54460769Y-70989850D01*
X54555225Y-70997788D01*
X54647300Y-70974769D01*
X54674288Y-70916825D01*
X54669525Y-70851738D01*
X54904475Y-70851738D01*
X55011543Y-70842213D01*
X55095681Y-70813638D01*
X55156888Y-70766013D01*
X55198339Y-70700043D01*
X55223210Y-70616435D01*
X55231500Y-70515188D01*
X55229119Y-70462006D01*
X55215625Y-70419938D01*
X55173953Y-70386600D01*
X55093388Y-70375488D01*
X54987025Y-70412000D01*
X54971944Y-70454069D01*
X54969563Y-70511219D01*
X54950513Y-70562019D01*
X54888600Y-70575513D01*
X54669525Y-70575513D01*
X54675875Y-70472325D01*
X54673494Y-70417556D01*
X54660000Y-70375488D01*
X54618328Y-70343341D01*
X54537762Y-70332625D01*
X54456403Y-70342944D01*
X54415525Y-70373900D01*
X54400444Y-70415969D01*
X54398062Y-70469944D01*
X54404412Y-70575513D01*
X54248837Y-70575513D01*
X54167875Y-70583450D01*
X54123822Y-70625916D01*
X54109137Y-70712038D01*
X53555232Y-70712038D01*
X53555232Y-69819995D01*
X53560552Y-69711709D01*
G37*
%TO.C,R1*%
X69310000Y-92610000D02*
X69310000Y-89870000D01*
X70080000Y-91240000D02*
X69310000Y-91240000D01*
X62770000Y-92610000D02*
X69310000Y-92610000D01*
X69310000Y-89870000D02*
X62770000Y-89870000D01*
X62770000Y-89870000D02*
X62770000Y-92610000D01*
X62000000Y-91240000D02*
X62770000Y-91240000D01*
%TO.C,J3*%
X80684000Y-72263000D02*
X108116000Y-72263000D01*
X108116000Y-99441000D02*
X108116000Y-72263000D01*
X91860000Y-72330000D02*
X99540000Y-72330000D01*
X90590000Y-74990000D02*
X89260000Y-74990000D01*
X99540000Y-74990000D02*
X99540000Y-72330000D01*
X91860000Y-74990000D02*
X99540000Y-74990000D01*
X80684000Y-77470000D02*
X108116000Y-77470000D01*
X91860000Y-74990000D02*
X91860000Y-72330000D01*
X108116000Y-99441000D02*
X80684000Y-99441000D01*
X80684000Y-99441000D02*
X80684000Y-72263000D01*
X89260000Y-74990000D02*
X89260000Y-73660000D01*
X80684000Y-94361000D02*
X108116000Y-94361000D01*
%TO.C,kibuzzard-6160B6E4*%
G36*
X87606066Y-129099348D02*
G01*
X87381781Y-129066079D01*
X87161837Y-129010986D01*
X86948352Y-128934600D01*
X86743383Y-128837656D01*
X86548902Y-128721089D01*
X86366783Y-128586021D01*
X86198781Y-128433752D01*
X86046512Y-128265749D01*
X85911444Y-128083631D01*
X85794876Y-127889150D01*
X85746013Y-127785838D01*
X88345163Y-127785838D01*
X88468988Y-128059681D01*
X88511850Y-128112069D01*
X88649963Y-128257325D01*
X88864275Y-128407344D01*
X89188125Y-128543075D01*
X89394103Y-128584152D01*
X89611988Y-128597844D01*
X89898267Y-128569798D01*
X90172904Y-128485660D01*
X90435900Y-128345431D01*
X90616875Y-128190055D01*
X90759750Y-127981100D01*
X90852619Y-127726902D01*
X90883575Y-127435794D01*
X90853214Y-127150639D01*
X90762132Y-126914300D01*
X90625805Y-126733920D01*
X90459713Y-126616644D01*
X90270403Y-126537467D01*
X90220302Y-126521394D01*
X91074075Y-126521394D01*
X91143132Y-126797619D01*
X91316963Y-126878581D01*
X91512225Y-126864294D01*
X91512225Y-127569144D01*
X91540800Y-127890348D01*
X91626525Y-128142760D01*
X91769400Y-128326381D01*
X91967309Y-128450735D01*
X92218134Y-128525348D01*
X92521875Y-128550219D01*
X92681419Y-128543075D01*
X92807625Y-128502594D01*
X92907638Y-128377578D01*
X92940975Y-128135881D01*
X92831438Y-127816794D01*
X92705232Y-127771550D01*
X92533782Y-127764406D01*
X92381382Y-127707256D01*
X92340900Y-127521519D01*
X92340900Y-127290538D01*
X93260063Y-127290538D01*
X93299221Y-127608831D01*
X93416696Y-127900138D01*
X93612488Y-128164456D01*
X93854052Y-128373477D01*
X94108846Y-128498890D01*
X94376869Y-128540694D01*
X94729889Y-128477591D01*
X94965038Y-128288281D01*
X95067432Y-128476400D01*
X95415094Y-128540694D01*
X95626430Y-128509738D01*
X95741325Y-128416869D01*
X95781807Y-128290663D01*
X95782946Y-128264469D01*
X96169950Y-128264469D01*
X96255675Y-128469256D01*
X96584288Y-128550219D01*
X96827175Y-128519263D01*
X96955763Y-128426394D01*
X97001007Y-128300188D01*
X97008150Y-128135881D01*
X97008150Y-127135756D01*
X97120069Y-126916681D01*
X97360575Y-126826194D01*
X97567744Y-126864294D01*
X97732050Y-126902394D01*
X97993988Y-126721419D01*
X98048280Y-126521394D01*
X98227350Y-126521394D01*
X98296407Y-126797619D01*
X98470238Y-126878581D01*
X98665500Y-126864294D01*
X98665500Y-127569144D01*
X98694075Y-127890348D01*
X98779800Y-128142760D01*
X98922675Y-128326381D01*
X99120584Y-128450735D01*
X99371409Y-128525348D01*
X99675150Y-128550219D01*
X99834694Y-128543075D01*
X99960900Y-128502594D01*
X100060913Y-128377578D01*
X100094250Y-128135881D01*
X99984713Y-127816794D01*
X99858507Y-127771550D01*
X99687057Y-127764406D01*
X99534657Y-127707256D01*
X99494175Y-127521519D01*
X99494175Y-126864294D01*
X99803738Y-126883344D01*
X99968044Y-126876200D01*
X100094250Y-126835719D01*
X100190691Y-126710703D01*
X100222838Y-126469006D01*
X100191882Y-126224928D01*
X100099013Y-126102294D01*
X99972807Y-126057050D01*
X99810882Y-126049906D01*
X99494175Y-126068956D01*
X99494175Y-125602231D01*
X99470363Y-125359344D01*
X99342966Y-125227184D01*
X99084600Y-125183131D01*
X98840522Y-125212897D01*
X98717888Y-125302194D01*
X98672644Y-125416494D01*
X98665500Y-125578419D01*
X98665500Y-126068956D01*
X98508338Y-126049906D01*
X98317838Y-126111819D01*
X98251163Y-126238025D01*
X98227350Y-126521394D01*
X98048280Y-126521394D01*
X98084475Y-126388044D01*
X98024944Y-126166587D01*
X97874925Y-126068956D01*
X97708238Y-126028475D01*
X97520119Y-126016569D01*
X97260563Y-126097531D01*
X97067682Y-126226119D01*
X96998625Y-126307081D01*
X96946238Y-126149919D01*
X96821222Y-126067766D01*
X96589050Y-126040381D01*
X96343782Y-126072528D01*
X96217575Y-126168969D01*
X96177094Y-126290412D01*
X96169950Y-126454719D01*
X96169950Y-128264469D01*
X95782946Y-128264469D01*
X95788950Y-128126356D01*
X95788950Y-126459481D01*
X95781807Y-126295175D01*
X95738944Y-126168969D01*
X95612738Y-126068956D01*
X95336513Y-126040381D01*
X95068622Y-126107056D01*
X94960275Y-126307081D01*
X94874550Y-126209450D01*
X94688813Y-126102294D01*
X94393538Y-126045144D01*
X94118636Y-126086683D01*
X93859079Y-126211302D01*
X93614869Y-126419000D01*
X93417754Y-126681996D01*
X93299486Y-126972508D01*
X93260063Y-127290538D01*
X92340900Y-127290538D01*
X92340900Y-126864294D01*
X92650463Y-126883344D01*
X92814769Y-126876200D01*
X92940975Y-126835719D01*
X93037416Y-126710703D01*
X93069563Y-126469006D01*
X93038607Y-126224928D01*
X92945738Y-126102294D01*
X92819532Y-126057050D01*
X92657607Y-126049906D01*
X92340900Y-126068956D01*
X92340900Y-125602231D01*
X92317088Y-125359344D01*
X92189691Y-125227184D01*
X91931325Y-125183131D01*
X91687247Y-125212897D01*
X91564613Y-125302194D01*
X91519369Y-125416494D01*
X91512225Y-125578419D01*
X91512225Y-126068956D01*
X91355063Y-126049906D01*
X91164563Y-126111819D01*
X91097888Y-126238025D01*
X91074075Y-126521394D01*
X90220302Y-126521394D01*
X90064425Y-126471387D01*
X89858447Y-126419595D01*
X89669138Y-126383281D01*
X89366719Y-126273744D01*
X89245275Y-126061812D01*
X89347669Y-125857025D01*
X89604844Y-125783206D01*
X89859638Y-125845119D01*
X89933457Y-125907031D01*
X89988225Y-125954656D01*
X90235875Y-126049906D01*
X90404944Y-125990375D01*
X90569250Y-125811781D01*
X90683550Y-125549844D01*
X90535913Y-125316481D01*
X90416850Y-125225994D01*
X90090619Y-125075975D01*
X89842374Y-125020611D01*
X89569125Y-125002156D01*
X89235486Y-125036817D01*
X88952117Y-125140798D01*
X88719019Y-125314100D01*
X88545717Y-125533969D01*
X88441736Y-125777650D01*
X88407075Y-126045144D01*
X88437436Y-126327917D01*
X88528519Y-126566637D01*
X88664846Y-126754161D01*
X88830938Y-126883344D01*
X89019057Y-126976808D01*
X89221463Y-127057175D01*
X89423869Y-127120873D01*
X89611988Y-127164331D01*
X89914407Y-127271488D01*
X90035850Y-127454844D01*
X89986638Y-127655927D01*
X89839000Y-127776577D01*
X89592938Y-127816794D01*
X89364338Y-127742975D01*
X89173838Y-127588194D01*
X88961907Y-127409600D01*
X88802363Y-127350069D01*
X88549950Y-127464369D01*
X88396360Y-127644748D01*
X88345163Y-127785838D01*
X85746013Y-127785838D01*
X85697933Y-127684180D01*
X85621547Y-127470695D01*
X85566454Y-127250751D01*
X85533184Y-127026466D01*
X85522059Y-126800000D01*
X85533184Y-126573534D01*
X85566454Y-126349249D01*
X85621547Y-126129305D01*
X85697933Y-125915820D01*
X85794876Y-125710850D01*
X85911444Y-125516369D01*
X86046512Y-125334251D01*
X86198781Y-125166248D01*
X86366783Y-125013979D01*
X86548902Y-124878911D01*
X86743383Y-124762344D01*
X86948352Y-124665400D01*
X87161837Y-124589014D01*
X87381781Y-124533921D01*
X87606066Y-124500652D01*
X87832533Y-124489526D01*
X100735468Y-124489526D01*
X100961934Y-124500652D01*
X101186219Y-124533921D01*
X101406163Y-124589014D01*
X101619648Y-124665401D01*
X101824618Y-124762344D01*
X102019098Y-124878911D01*
X102201217Y-125013980D01*
X102369219Y-125166248D01*
X102521488Y-125334251D01*
X102656556Y-125516370D01*
X102773124Y-125710850D01*
X102870067Y-125915820D01*
X102946453Y-126129305D01*
X103001546Y-126349249D01*
X103034816Y-126573534D01*
X103045941Y-126800000D01*
X103034816Y-127026466D01*
X103001546Y-127250751D01*
X102946453Y-127470695D01*
X102870067Y-127684180D01*
X102773124Y-127889150D01*
X102656556Y-128083630D01*
X102521488Y-128265749D01*
X102369219Y-128433752D01*
X102201217Y-128586020D01*
X102019098Y-128721089D01*
X101824618Y-128837656D01*
X101619648Y-128934599D01*
X101406163Y-129010986D01*
X101186219Y-129066079D01*
X100961934Y-129099348D01*
X100735468Y-129110474D01*
X87832533Y-129110474D01*
X87606066Y-129099348D01*
G37*
G36*
X94815019Y-127007169D02*
G01*
X94926938Y-127295300D01*
X94810257Y-127578669D01*
X94517363Y-127707256D01*
X94217325Y-127581050D01*
X94093500Y-127297681D01*
X94210182Y-127007169D01*
X94514982Y-126873819D01*
X94815019Y-127007169D01*
G37*
%TO.C,C4*%
X112958000Y-51541000D02*
X111530000Y-51541000D01*
X109450000Y-51460000D02*
X107999000Y-51460000D01*
X109450000Y-52741000D02*
X108791000Y-52741000D01*
X112981000Y-51460000D02*
X111530000Y-51460000D01*
X111741000Y-53061000D02*
X111530000Y-53061000D01*
X109450000Y-52901000D02*
X108990000Y-52901000D01*
X109450000Y-51661000D02*
X108062000Y-51661000D01*
X112143000Y-52781000D02*
X111530000Y-52781000D01*
X111990000Y-52901000D02*
X111530000Y-52901000D01*
X113059000Y-51020000D02*
X111530000Y-51020000D01*
X111405000Y-53221000D02*
X109575000Y-53221000D01*
X113066000Y-50940000D02*
X107914000Y-50940000D01*
X112044000Y-52861000D02*
X111530000Y-52861000D01*
X109450000Y-52781000D02*
X108837000Y-52781000D01*
X109450000Y-51020000D02*
X107921000Y-51020000D01*
X109450000Y-51741000D02*
X108092000Y-51741000D01*
X111933000Y-52941000D02*
X111530000Y-52941000D01*
X112780000Y-51981000D02*
X111530000Y-51981000D01*
X112189000Y-52741000D02*
X111530000Y-52741000D01*
X112855000Y-51821000D02*
X111530000Y-51821000D01*
X109450000Y-52341000D02*
X108425000Y-52341000D01*
X113001000Y-51380000D02*
X111530000Y-51380000D01*
X109450000Y-51861000D02*
X108142000Y-51861000D01*
X112525000Y-52381000D02*
X111530000Y-52381000D01*
X109450000Y-52021000D02*
X108222000Y-52021000D01*
X112690000Y-52141000D02*
X111530000Y-52141000D01*
X109450000Y-52301000D02*
X108395000Y-52301000D01*
X109450000Y-51621000D02*
X108048000Y-51621000D01*
X112461000Y-52461000D02*
X111530000Y-52461000D01*
X111809000Y-53021000D02*
X111530000Y-53021000D01*
X111008000Y-53341000D02*
X109972000Y-53341000D01*
X112494000Y-52421000D02*
X111530000Y-52421000D01*
X113010000Y-51340000D02*
X111530000Y-51340000D01*
X112275000Y-52661000D02*
X111530000Y-52661000D01*
X109450000Y-51701000D02*
X108076000Y-51701000D01*
X109450000Y-52541000D02*
X108589000Y-52541000D01*
X113051000Y-51100000D02*
X111530000Y-51100000D01*
X109450000Y-52821000D02*
X108885000Y-52821000D01*
X109450000Y-51581000D02*
X108035000Y-51581000D01*
X109450000Y-51180000D02*
X107940000Y-51180000D01*
X109450000Y-52421000D02*
X108486000Y-52421000D01*
X109450000Y-52501000D02*
X108553000Y-52501000D01*
X112872000Y-51781000D02*
X111530000Y-51781000D01*
X113068000Y-50900000D02*
X107912000Y-50900000D01*
X113033000Y-51220000D02*
X111530000Y-51220000D01*
X112095000Y-52821000D02*
X111530000Y-52821000D01*
X113070000Y-50780000D02*
X107910000Y-50780000D01*
X109450000Y-53061000D02*
X109239000Y-53061000D01*
X112555000Y-52341000D02*
X111530000Y-52341000D01*
X113046000Y-51140000D02*
X111530000Y-51140000D01*
X112991000Y-51420000D02*
X111530000Y-51420000D01*
X112233000Y-52701000D02*
X111530000Y-52701000D01*
X109450000Y-52581000D02*
X108626000Y-52581000D01*
X109450000Y-51260000D02*
X107954000Y-51260000D01*
X112639000Y-52221000D02*
X111530000Y-52221000D01*
X109450000Y-52621000D02*
X108664000Y-52621000D01*
X112838000Y-51861000D02*
X111530000Y-51861000D01*
X112316000Y-52621000D02*
X111530000Y-52621000D01*
X112354000Y-52581000D02*
X111530000Y-52581000D01*
X111167000Y-53301000D02*
X109813000Y-53301000D01*
X109450000Y-51380000D02*
X107979000Y-51380000D01*
X109450000Y-51901000D02*
X108161000Y-51901000D01*
X113063000Y-50980000D02*
X107917000Y-50980000D01*
X109450000Y-52101000D02*
X108266000Y-52101000D01*
X111588000Y-53141000D02*
X109392000Y-53141000D01*
X112800000Y-51941000D02*
X111530000Y-51941000D01*
X111668000Y-53101000D02*
X109312000Y-53101000D01*
X109450000Y-51220000D02*
X107947000Y-51220000D01*
X109450000Y-51420000D02*
X107989000Y-51420000D01*
X109450000Y-51941000D02*
X108180000Y-51941000D01*
X112932000Y-51621000D02*
X111530000Y-51621000D01*
X112714000Y-52101000D02*
X111530000Y-52101000D01*
X111873000Y-52981000D02*
X111530000Y-52981000D01*
X109450000Y-52261000D02*
X108368000Y-52261000D01*
X112585000Y-52301000D02*
X111530000Y-52301000D01*
X109450000Y-52141000D02*
X108290000Y-52141000D01*
X112918000Y-51661000D02*
X111530000Y-51661000D01*
X109450000Y-52941000D02*
X109047000Y-52941000D01*
X109450000Y-51100000D02*
X107929000Y-51100000D01*
X113070000Y-50820000D02*
X107910000Y-50820000D01*
X109450000Y-51501000D02*
X108010000Y-51501000D01*
X111965000Y-47975225D02*
X111965000Y-48475225D01*
X109450000Y-52181000D02*
X108315000Y-52181000D01*
X113055000Y-51060000D02*
X111530000Y-51060000D01*
X111501000Y-53181000D02*
X109479000Y-53181000D01*
X112888000Y-51741000D02*
X111530000Y-51741000D01*
X112665000Y-52181000D02*
X111530000Y-52181000D01*
X109450000Y-52701000D02*
X108747000Y-52701000D01*
X109450000Y-51981000D02*
X108200000Y-51981000D01*
X112737000Y-52061000D02*
X111530000Y-52061000D01*
X112970000Y-51501000D02*
X111530000Y-51501000D01*
X112427000Y-52501000D02*
X111530000Y-52501000D01*
X112215000Y-48225225D02*
X111715000Y-48225225D01*
X112612000Y-52261000D02*
X111530000Y-52261000D01*
X111295000Y-53261000D02*
X109685000Y-53261000D01*
X109450000Y-51340000D02*
X107970000Y-51340000D01*
X113040000Y-51180000D02*
X111530000Y-51180000D01*
X109450000Y-52061000D02*
X108243000Y-52061000D01*
X113069000Y-50860000D02*
X107911000Y-50860000D01*
X109450000Y-52981000D02*
X109107000Y-52981000D01*
X113026000Y-51260000D02*
X111530000Y-51260000D01*
X109450000Y-53021000D02*
X109171000Y-53021000D01*
X109450000Y-51541000D02*
X108022000Y-51541000D01*
X112945000Y-51581000D02*
X111530000Y-51581000D01*
X109450000Y-51781000D02*
X108108000Y-51781000D01*
X112904000Y-51701000D02*
X111530000Y-51701000D01*
X109450000Y-52221000D02*
X108341000Y-52221000D01*
X113018000Y-51300000D02*
X111530000Y-51300000D01*
X112391000Y-52541000D02*
X111530000Y-52541000D01*
X112758000Y-52021000D02*
X111530000Y-52021000D01*
X109450000Y-51821000D02*
X108125000Y-51821000D01*
X109450000Y-52381000D02*
X108455000Y-52381000D01*
X109450000Y-51140000D02*
X107934000Y-51140000D01*
X109450000Y-52861000D02*
X108936000Y-52861000D01*
X109450000Y-52461000D02*
X108519000Y-52461000D01*
X109450000Y-52661000D02*
X108705000Y-52661000D01*
X112819000Y-51901000D02*
X111530000Y-51901000D01*
X109450000Y-51300000D02*
X107962000Y-51300000D01*
X109450000Y-51060000D02*
X107925000Y-51060000D01*
X110774000Y-53381000D02*
X110206000Y-53381000D01*
X113110000Y-50780000D02*
G75*
G03*
X113110000Y-50780000I-2620000J0D01*
G01*
%TO.C,SW1*%
X60998000Y-68944000D02*
X59498000Y-68944000D01*
X59498000Y-75944000D02*
X60998000Y-75944000D01*
X56998000Y-70194000D02*
X56998000Y-74694000D01*
X63498000Y-74694000D02*
X63498000Y-70194000D01*
%TD*%
M02*
